<svg width="72" height="72" viewBox="0 0 72 72" fill="none" xmlns="http://www.w3.org/2000/svg">
<g clip-path="url(#clip0_87_946)">
<path d="M49.5 22.5151V16.5151C49.5 14.9238 48.8679 13.3977 47.7426 12.2725C46.6174 11.1473 45.0913 10.5151 43.5 10.5151H7.5C5.9087 10.5151 4.38258 11.1473 3.25736 12.2725C2.13214 13.3977 1.5 14.9238 1.5 16.5151V22.5151H49.5Z" fill="white"/>
<path d="M1.5 22.5151H49.5V70.5001H1.5V22.5151Z" fill="#C1D0FF"/>
<path d="M49.485 22.5151H1.5V70.5001L49.485 22.5151Z" fill="#E1E9FF"/>
<path d="M52.299 1.5C49.9298 1.50793 47.5859 1.9871 45.4037 2.9096C43.2215 3.83211 41.2446 5.17951 39.5882 6.87338C37.9317 8.56724 36.6288 10.5737 35.7553 12.776C34.8817 14.9782 34.455 17.3323 34.5 19.701C34.3654 23.0507 35.1774 26.3706 36.843 29.28L31.5 40.5L42.723 35.154C45.1155 36.6371 47.8195 37.5448 50.6222 37.8057C53.425 38.0666 56.2501 37.6735 58.8752 36.6574C61.5003 35.6412 63.8537 34.0298 65.7504 31.9498C67.6471 29.8699 69.0352 27.3782 69.8056 24.6708C70.576 21.9634 70.7076 19.1141 70.19 16.3472C69.6725 13.5803 68.5199 10.9713 66.823 8.72534C65.1261 6.47942 62.9312 4.65792 60.411 3.40416C57.8907 2.1504 55.1139 1.49858 52.299 1.5Z" fill="#C1D0FF" stroke="#3A5BC7" stroke-width="3" stroke-linecap="round" stroke-linejoin="round"/>
<path d="M52.5 25.5C52.6483 25.5 52.7933 25.544 52.9167 25.6264C53.04 25.7088 53.1361 25.8259 53.1929 25.963C53.2497 26.1 53.2645 26.2508 53.2356 26.3963C53.2066 26.5418 53.1352 26.6754 53.0303 26.7803C52.9254 26.8852 52.7918 26.9567 52.6463 26.9856C52.5008 27.0145 52.35 26.9997 52.213 26.9429C52.0759 26.8861 51.9588 26.79 51.8764 26.6667C51.794 26.5433 51.75 26.3983 51.75 26.25C51.75 26.0511 51.829 25.8603 51.9697 25.7197C52.1103 25.579 52.3011 25.5 52.5 25.5Z" stroke="#3A5BC7" stroke-width="3" stroke-linecap="round" stroke-linejoin="round"/>
<path d="M52.5 21V12" stroke="#3A5BC7" stroke-width="3" stroke-linecap="round" stroke-linejoin="round"/>
<path d="M49.5 43.5V70.5" stroke="#3A5BC7" stroke-width="3" stroke-linecap="round" stroke-linejoin="round"/>
<path d="M1.5 70.5V16.5C1.5 14.9087 2.13214 13.3826 3.25736 12.2574C4.38258 11.1321 5.9087 10.5 7.5 10.5H30" stroke="#3A5BC7" stroke-width="3" stroke-linecap="round" stroke-linejoin="round"/>
<path d="M28.5 22.5H1.5" stroke="#3A5BC7" stroke-width="3" stroke-linecap="round" stroke-linejoin="round"/>
<path d="M24 57C25.335 57 26.6401 56.6041 27.7501 55.8624C28.8601 55.1207 29.7253 54.0665 30.2362 52.8331C30.7471 51.5997 30.8808 50.2425 30.6203 48.9331C30.3599 47.6238 29.717 46.421 28.773 45.477C27.829 44.533 26.6262 43.8902 25.3169 43.6297C24.0075 43.3693 22.6503 43.5029 21.4169 44.0138C20.1835 44.5247 19.1293 45.3899 18.3876 46.4999C17.6459 47.6099 17.25 48.915 17.25 50.25C17.25 51.1364 17.4246 52.0142 17.7638 52.8331C18.103 53.6521 18.6002 54.3962 19.227 55.023C19.8538 55.6498 20.5979 56.147 21.4169 56.4862C22.2358 56.8254 23.1136 57 24 57Z" fill="#E1E9FF" stroke="#3A5BC7" stroke-width="3" stroke-linecap="round" stroke-linejoin="round"/>
<path d="M37.5 70.5C36.735 67.5002 34.9927 64.8406 32.5481 62.9411C30.1035 61.0416 27.0958 60.0105 24 60.0105C20.9042 60.0105 17.8965 61.0416 15.4519 62.9411C13.0073 64.8406 11.265 67.5002 10.5 70.5" fill="#C1D0FF"/>
<path d="M37.5 70.5C36.735 67.5002 34.9927 64.8406 32.5481 62.9411C30.1035 61.0416 27.0958 60.0105 24 60.0105C20.9042 60.0105 17.8965 61.0416 15.4519 62.9411C13.0073 64.8406 11.265 67.5002 10.5 70.5" stroke="#3A5BC7" stroke-width="3" stroke-linecap="round" stroke-linejoin="round"/>
<path d="M21 16.5H28.5" stroke="#3A5BC7" stroke-width="3" stroke-linecap="round" stroke-linejoin="round"/>
</g>
<defs>
<clipPath id="clip0_87_946">
<rect width="72" height="72" fill="white"/>
</clipPath>
</defs>
</svg>
