<svg width="72" height="72" viewBox="0 0 72 72" fill="none" xmlns="http://www.w3.org/2000/svg">
<path d="M41.5 46.5H10.5L13 58.5H16.5L27.5 61.5L36.5 58.5L47.5 61.5L56.5 58.5L64.5 39H44.5L41.5 46.5Z" fill="#E0C4F4"/>
<path d="M14 32.5V44.5L40.5 46L44.5 39.5L43 31.5L37 29.5L17 30.5L14 32.5Z" fill="#F2E2FC"/>
<path d="M63.8113 59.0398C62.1582 58.8411 60.569 58.2684 59.1685 57.3872L65.4233 38.6228C65.8381 37.3777 64.9106 36.0885 63.5967 36.0885H46.2685V34.1631C46.2685 30.9782 43.6774 28.3871 40.4924 28.3871H38.5671V18.7603C38.5671 17.697 37.705 16.835 36.6417 16.835H28.9403C27.877 16.835 27.015 17.697 27.015 18.7603V20.6857H21.2389C20.1756 20.6857 19.3135 21.5477 19.3135 22.611V28.3871H17.3883C14.2034 28.3871 11.6122 30.9782 11.6122 34.1631V43.7899H8.40343C7.09103 43.7899 6.16151 45.0779 6.57691 46.3241L10.7333 58.7935C10.2809 58.9055 9.82078 58.9896 9.35555 59.0439C8.29929 59.1675 7.54345 60.1239 7.66708 61.18C7.79071 62.2362 8.74664 62.993 9.80325 62.8685C11.1929 62.7059 12.5496 62.3472 13.832 61.8136C13.9002 61.7886 13.9659 61.7599 14.0295 61.7282C15.2134 61.2158 16.3323 60.555 17.3512 59.7577C22.9181 64.0701 31.0212 64.0752 36.5963 59.7584C42.2195 64.166 50.3733 63.9943 55.8504 59.7573C58.0104 61.4474 60.617 62.5342 63.3518 62.8629C64.406 62.99 65.3662 62.2369 65.4932 61.1811C65.6201 60.1255 64.8671 59.1668 63.8113 59.0398ZM30.8657 22.6111V20.6858H34.7164V28.3872H30.8657V22.6111ZM23.1642 24.5365H27.015V28.3872H23.1642V24.5365ZM15.4629 34.1631C15.4629 33.1015 16.3266 32.2378 17.3883 32.2378C18.3085 32.2378 39.5488 32.2378 40.4925 32.2378C41.5542 32.2378 42.4179 33.1015 42.4179 34.1631V37.6648L40.121 43.7899H15.4629V34.1631ZM55.8147 55.2712C55.3353 55.281 54.8586 55.4674 54.4928 55.8333C50.0898 60.2363 42.3652 60.2363 37.9621 55.8333C37.2103 55.0814 35.9912 55.0815 35.2393 55.8333C30.8363 60.2363 23.1117 60.2363 18.7085 55.8333C17.9567 55.0815 16.7376 55.0814 15.9857 55.8333C15.4612 56.3578 14.8856 56.8251 14.272 57.2331L11.0748 47.6406H13.5377H41.4553C42.2468 47.6406 42.9723 47.1499 43.258 46.3913L45.6776 39.9392H60.9255L55.8147 55.2712Z" fill="#8145B5"/>
<path d="M25.0895 36.0884H21.2388C20.1755 36.0884 19.3135 36.9504 19.3135 38.0137C19.3135 39.077 20.1755 39.9391 21.2388 39.9391H25.0895C26.1528 39.9391 27.0149 39.077 27.0149 38.0137C27.0149 36.9504 26.153 36.0884 25.0895 36.0884Z" fill="#8145B5"/>
<path d="M36.6418 36.0884H32.7911C31.7278 36.0884 30.8657 36.9504 30.8657 38.0137C30.8657 39.077 31.7278 39.9391 32.7911 39.9391H36.6418C37.7051 39.9391 38.5671 39.077 38.5671 38.0137C38.5671 36.9504 37.7051 36.0884 36.6418 36.0884Z" fill="#8145B5"/>
<path d="M53.0073 43.7898H49.1566C48.0933 43.7898 47.2312 44.6519 47.2312 45.7151C47.2312 46.7784 48.0933 47.6405 49.1566 47.6405H53.0073C54.0706 47.6405 54.9326 46.7784 54.9326 45.7151C54.9326 44.6519 54.0706 43.7898 53.0073 43.7898Z" fill="#8145B5"/>
<path d="M26.6917 11.9164C24.0984 8.02614 18.3774 8.0296 15.7864 11.9164C14.7157 13.5223 12.3619 13.5259 11.289 11.9164C10.6991 11.0316 9.50361 10.7928 8.61907 11.3823C7.73418 11.9722 7.49522 13.1677 8.08511 14.0522C10.6785 17.9426 16.3994 17.9389 18.9904 14.0522C20.0611 12.4463 22.4148 12.4427 23.4878 14.0522C24.0778 14.9372 25.2733 15.176 26.1577 14.5863C27.0425 13.9965 27.2816 12.8012 26.6917 11.9164Z" fill="#8145B5"/>
</svg>
