<svg width="72" height="72" viewBox="0 0 72 72" fill="none" xmlns="http://www.w3.org/2000/svg">
<path d="M32.9496 6.83996C34.8894 5.72001 37.2793 5.72001 39.2191 6.83996L60.0974 18.894C62.0372 20.0139 63.2321 22.0836 63.2321 24.3235V48.4315C63.2321 50.6713 62.0372 52.7411 60.0974 53.8612L39.2191 65.9149C37.2793 67.0349 34.8894 67.0349 32.9496 65.9149L12.0715 53.8612C10.1317 52.7411 8.93677 50.6713 8.93677 48.4315V24.3235C8.93677 22.0836 10.1317 20.0139 12.0715 18.894L32.9496 6.83996Z" fill="#C8F4E9" stroke="#027864" stroke-width="3" stroke-linecap="round" stroke-linejoin="round"/>
<path d="M36.4867 36.9801L9.86316 52.9543L36.4867 66.5081L62.6262 51.018L62.1422 21.9741L36.4867 36.9801Z" fill="#9CE0D0"/>
<path d="M62.3764 21.1975L36.0841 36.3775L9.78125 21.1733" stroke="#027864" stroke-width="3" stroke-linecap="round" stroke-linejoin="round"/>
<path d="M36.0844 36.3774V64.5901" stroke="#027864" stroke-width="3" stroke-linecap="round" stroke-linejoin="round"/>
<path d="M32.9496 6.83996C34.8894 5.72001 37.2793 5.72001 39.2191 6.83996L60.0974 18.894C62.0372 20.0139 63.2321 22.0836 63.2321 24.3235V48.4315C63.2321 50.6713 62.0372 52.7411 60.0974 53.8612L39.2191 65.9149C37.2793 67.0349 34.8894 67.0349 32.9496 65.9149L12.0715 53.8612C10.1317 52.7411 8.93677 50.6713 8.93677 48.4315V24.3235C8.93677 22.0836 10.1317 20.0139 12.0715 18.894L32.9496 6.83996Z" stroke="#027864" stroke-width="3" stroke-linecap="round" stroke-linejoin="round"/>
<path d="M25.1128 12.8669L48.6233 26.9733" stroke="#027864" stroke-width="3" stroke-linecap="round" stroke-linejoin="round"/>
</svg>
