<svg width="72" height="72" viewBox="0 0 72 72" fill="none" xmlns="http://www.w3.org/2000/svg">
<g clip-path="url(#clip0_175_15310)">
<mask id="path-1-inside-1_175_15310" fill="white">
<rect x="13" y="11" width="20.4828" height="14.8966" rx="2"/>
</mask>
<rect x="13" y="11" width="20.4828" height="14.8966" rx="2" fill="#C8F4E9" stroke="#027864" stroke-width="6" mask="url(#path-1-inside-1_175_15310)"/>
<mask id="path-2-inside-2_175_15310" fill="white">
<rect x="4.37927" y="23.0344" width="20.4828" height="15.8276" rx="2"/>
</mask>
<rect x="4.37927" y="23.0344" width="20.4828" height="15.8276" rx="2" fill="#C8F4E9" stroke="#027864" stroke-width="6" mask="url(#path-2-inside-2_175_15310)"/>
<mask id="path-3-inside-3_175_15310" fill="white">
<rect x="23" y="23.0344" width="20.4828" height="15.8276" rx="2"/>
</mask>
<rect x="23" y="23.0344" width="20.4828" height="15.8276" rx="2" fill="#C8F4E9" stroke="#027864" stroke-width="6" mask="url(#path-3-inside-3_175_15310)"/>
<path fill-rule="evenodd" clip-rule="evenodd" d="M56.7853 16.9496C56.0253 16.0418 54.9022 15.5173 53.7183 15.5173H42.8276C40.6184 15.5173 38.8276 17.3082 38.8276 19.5173V32.0001C38.8276 34.2092 37.0367 36.0001 34.8276 36.0001H4.65517C2.44603 36.0001 0.655172 37.791 0.655172 40.0001V51.5518C0.655172 53.761 2.44604 55.5518 4.65518 55.5518L38.8276 55.5518H68.3448C70.554 55.5518 72.3448 53.7609 72.3448 51.5518V36.0001C72.3448 35.6994 72.239 35.4082 72.046 35.1776L56.7853 16.9496Z" fill="#9CE0D0"/>
<path d="M36 37L7.5 55L3.5 54.5L1.5 52V39.5L4.5 37H36Z" fill="#C8F4E9"/>
<mask id="path-6-inside-4_175_15310" fill="white">
<path fill-rule="evenodd" clip-rule="evenodd" d="M56.7853 16.9496C56.0253 16.0418 54.9022 15.5173 53.7183 15.5173H42.8276C40.6184 15.5173 38.8276 17.3082 38.8276 19.5173V32.0001C38.8276 34.2092 37.0367 36.0001 34.8276 36.0001H4.65517C2.44603 36.0001 0.655172 37.791 0.655172 40.0001V51.5518C0.655172 53.761 2.44604 55.5518 4.65518 55.5518L38.8276 55.5518H68.3448C70.554 55.5518 72.3448 53.7609 72.3448 51.5518V36.0001C72.3448 35.6994 72.239 35.4082 72.046 35.1776L56.7853 16.9496Z"/>
</mask>
<path d="M38.8276 55.5518V52.5518V55.5518ZM72.046 35.1776L69.7457 37.1034L72.046 35.1776ZM4.65518 55.5518V52.5518V55.5518ZM56.7853 16.9496L54.485 18.8754L56.7853 16.9496ZM42.8276 18.5173H53.7183V12.5173H42.8276V18.5173ZM41.8276 32.0001V19.5173H35.8276V32.0001H41.8276ZM4.65517 39.0001H34.8276V33.0001H4.65517V39.0001ZM3.65517 51.5518V40.0001H-2.34483V51.5518H3.65517ZM38.8276 52.5518L4.65518 52.5518L4.65518 58.5518L38.8276 58.5518V52.5518ZM68.3448 52.5518H38.8276V58.5518H68.3448V52.5518ZM69.3448 36.0001V51.5518H75.3448V36.0001H69.3448ZM54.485 18.8754L69.7457 37.1034L74.3463 33.2518L59.0856 15.0238L54.485 18.8754ZM75.3448 36.0001C75.3448 34.9952 74.9913 34.0223 74.3463 33.2518L69.7457 37.1034C69.4867 36.7941 69.3448 36.4035 69.3448 36.0001H75.3448ZM68.3448 58.5518C72.2108 58.5518 75.3448 55.4178 75.3448 51.5518H69.3448C69.3448 52.1041 68.8971 52.5518 68.3448 52.5518V58.5518ZM-2.34483 51.5518C-2.34483 55.4178 0.789188 58.5518 4.65518 58.5518L4.65518 52.5518C4.10289 52.5518 3.65517 52.1041 3.65517 51.5518H-2.34483ZM4.65517 33.0001C0.789176 33.0001 -2.34483 36.1341 -2.34483 40.0001H3.65517C3.65517 39.4478 4.10289 39.0001 4.65517 39.0001V33.0001ZM35.8276 32.0001C35.8276 32.5524 35.3799 33.0001 34.8276 33.0001V39.0001C38.6936 39.0001 41.8276 35.8661 41.8276 32.0001H35.8276ZM53.7183 18.5173C54.0143 18.5173 54.295 18.6485 54.485 18.8754L59.0856 15.0238C57.7556 13.4352 55.7901 12.5173 53.7183 12.5173V18.5173ZM42.8276 12.5173C38.9616 12.5173 35.8276 15.6513 35.8276 19.5173H41.8276C41.8276 18.965 42.2753 18.5173 42.8276 18.5173V12.5173Z" fill="#027864" mask="url(#path-6-inside-4_175_15310)"/>
<circle cx="17.8793" cy="54.1551" r="7.34483" fill="#FDFDFE" stroke="#027864" stroke-width="3"/>
<circle cx="18" cy="54" r="1.5" fill="#C8F4E9" stroke="#027864" stroke-width="3"/>
<circle cx="53.2586" cy="54.1551" r="7.34483" fill="#FDFDFE" stroke="#027864" stroke-width="3"/>
<circle cx="53" cy="54" r="1.5" fill="#C8F4E9" stroke="#027864" stroke-width="3"/>
<path d="M51.069 23.5344H59.7906C59.8996 23.5345 60.0047 23.5698 60.0905 23.634L60.1696 23.7083L70.7975 36.0364C70.8282 36.0721 70.8444 36.1182 70.8444 36.1653C70.8442 36.2739 70.7567 36.3614 70.6481 36.3616H51.069C50.7928 36.3616 50.569 36.1377 50.569 35.8616V24.0344L50.5787 23.9338C50.6253 23.7059 50.8273 23.5344 51.069 23.5344Z" fill="#C8F4E9" stroke="#027864" stroke-width="3"/>
</g>
<defs>
<clipPath id="clip0_175_15310">
<rect width="72" height="72" fill="white"/>
</clipPath>
</defs>
</svg>
