<svg width="72" height="72" viewBox="0 0 72 72" fill="none" xmlns="http://www.w3.org/2000/svg">
<g clip-path="url(#clip0_87_954)">
<path d="M36 70.5C42.8235 70.5 49.4937 68.4766 55.1672 64.6857C60.8407 60.8948 65.2626 55.5066 67.8738 49.2026C70.4851 42.8985 71.1683 35.9617 69.8371 29.2694C68.5059 22.5771 65.2201 16.4297 60.3952 11.6048C55.5703 6.77992 49.423 3.49411 42.7306 2.16292C36.0383 0.831733 29.1015 1.51495 22.7974 4.12617C16.4934 6.7374 11.1052 11.1593 7.3143 16.8328C3.52339 22.5063 1.5 29.1766 1.5 36C1.5 45.15 5.13481 53.9252 11.6048 60.3952C18.0748 66.8652 26.85 70.5 36 70.5Z" fill="#C1D0FF"/>
<path d="M36 14.067C44.0584 14.0731 51.8604 16.8999 58.0525 22.0569C64.2446 27.2139 68.4362 34.3758 69.9 42.3C70.8421 37.3148 70.6731 32.1832 69.405 27.2708C68.1369 22.3584 65.801 17.7861 62.5638 13.8798C59.3265 9.97342 55.2674 6.82913 50.6759 4.67094C46.0844 2.51276 41.0734 1.3938 36 1.3938C30.9266 1.3938 25.9156 2.51276 21.3241 4.67094C16.7326 6.82913 12.6735 9.97342 9.43625 13.8798C6.19896 17.7861 3.86306 22.3584 2.595 27.2708C1.32694 32.1832 1.15792 37.3148 2.1 42.3C3.56382 34.3758 7.75537 27.2139 13.9475 22.0569C20.1396 16.8999 27.9416 14.0731 36 14.067Z" fill="#E1E9FF"/>
<path d="M36 70.5C42.8235 70.5 49.4937 68.4766 55.1672 64.6857C60.8407 60.8948 65.2626 55.5066 67.8738 49.2026C70.4851 42.8985 71.1683 35.9617 69.8371 29.2694C68.5059 22.5771 65.2201 16.4297 60.3952 11.6048C55.5703 6.77992 49.423 3.49411 42.7306 2.16292C36.0383 0.831733 29.1015 1.51495 22.7974 4.12617C16.4934 6.7374 11.1052 11.1593 7.3143 16.8328C3.52339 22.5063 1.5 29.1766 1.5 36C1.5 45.15 5.13481 53.9252 11.6048 60.3952C18.0748 66.8652 26.85 70.5 36 70.5Z" stroke="#3A5BC7" stroke-width="3" stroke-linecap="round" stroke-linejoin="round"/>
<path d="M53.1001 26.7002C52.7204 27.2245 52.5109 27.8529 52.5001 28.5002V40.9502L40.7401 43.3202L44.0401 40.6202C44.4481 40.2756 44.7071 39.7866 44.763 39.2555C44.8189 38.7244 44.6674 38.1922 44.3401 37.7702L38.5771 31.4102L36.4501 32.2802C35.6296 32.6266 34.7098 32.6566 33.8685 32.3643C33.0272 32.0721 32.3241 31.4783 31.8951 30.6979C31.466 29.9174 31.3415 29.0056 31.5456 28.1387C31.7497 27.2718 32.2679 26.5113 33.0001 26.0042C33.1577 25.8861 33.3277 25.7855 33.5071 25.7042L39.0601 23.0042C39.6686 22.7106 40.3294 22.5409 41.004 22.5048C41.6787 22.4688 42.3538 22.5671 42.9901 22.7942L53.1001 26.7002Z" fill="#E1E9FF" stroke="#3A5BC7" stroke-width="3" stroke-linecap="round" stroke-linejoin="round"/>
<path d="M53.1181 26.6938H53.0881" stroke="#3A5BC7" stroke-width="3" stroke-linecap="round" stroke-linejoin="round"/>
<path d="M41.9879 29.9941L38.5679 31.4041" stroke="#3A5BC7" stroke-width="3" stroke-linecap="round" stroke-linejoin="round"/>
<path d="M44.028 40.614L40.728 43.314L33.528 49.224C33.1134 49.56 32.585 49.7227 32.0532 49.6779C31.5215 49.6332 31.0276 49.3846 30.675 48.984L23.7 43.5H19.5V28.5L28.05 24.87C28.5657 24.6667 29.1157 24.5649 29.67 24.57C30.6068 24.5676 31.5204 24.8617 32.28 25.41L33 26.01C32.275 26.52 31.7637 27.2794 31.5639 28.143C31.3641 29.0065 31.4899 29.9134 31.9172 30.69C32.3444 31.4666 33.0432 32.0582 33.8796 32.3516C34.716 32.645 35.6312 32.6195 36.45 32.28L38.577 31.41L44.34 37.77C44.6641 38.1931 44.8125 38.7248 44.7544 39.2546C44.6963 39.7843 44.4361 40.2713 44.028 40.614Z" fill="#E1E9FF" stroke="#3A5BC7" stroke-width="3" stroke-linecap="round" stroke-linejoin="round"/>
<path d="M33.0179 26.0339L32.9879 26.0039" stroke="#3A5BC7" stroke-width="3" stroke-linecap="round" stroke-linejoin="round"/>
<path d="M59.9999 25.5001H55.4999C55.0378 25.4967 54.5815 25.6038 54.1693 25.8125C53.757 26.0213 53.4006 26.3256 53.1298 26.7001H53.0999" stroke="#3A5BC7" stroke-width="3" stroke-linecap="round" stroke-linejoin="round"/>
<path d="M52.5 40.9438V43.4938C52.5 44.2895 52.8161 45.0526 53.3787 45.6152C53.9413 46.1778 54.7044 46.4938 55.5 46.4938H60" stroke="#3A5BC7" stroke-width="3" stroke-linecap="round" stroke-linejoin="round"/>
<path d="M60 46.5001H55.5C54.7044 46.5001 53.9413 46.184 53.3787 45.6214C52.8161 45.0588 52.5 44.2958 52.5 43.5001V28.5001C52.5108 27.8528 52.7203 27.2244 53.1 26.7001H53.13C53.4004 26.3253 53.7567 26.0207 54.1691 25.8119C54.5814 25.6031 55.0378 25.4962 55.5 25.5001H60" fill="white"/>
<path d="M60 46.5001H55.5C54.7044 46.5001 53.9413 46.184 53.3787 45.6214C52.8161 45.0588 52.5 44.2958 52.5 43.5001V28.5001C52.5108 27.8528 52.7203 27.2244 53.1 26.7001H53.13C53.4004 26.3253 53.7567 26.0207 54.1691 25.8119C54.5814 25.6031 55.0378 25.4962 55.5 25.5001H60" stroke="#3A5BC7" stroke-width="3" stroke-linecap="round" stroke-linejoin="round"/>
<path d="M12 46.5152H16.5C17.2956 46.5152 18.0587 46.1991 18.6213 45.6365C19.1839 45.0739 19.5 44.3109 19.5 43.5152V28.5152C19.4892 27.8679 19.2797 27.2396 18.9 26.7152H18.87C18.5993 26.3407 18.2429 26.0364 17.8306 25.8277C17.4183 25.6189 16.9621 25.5118 16.5 25.5152H12" fill="white"/>
<path d="M12 46.5152H16.5C17.2956 46.5152 18.0587 46.1991 18.6213 45.6365C19.1839 45.0739 19.5 44.3109 19.5 43.5152V28.5152C19.4892 27.8679 19.2797 27.2396 18.9 26.7152H18.87C18.5993 26.3407 18.2429 26.0364 17.8306 25.8277C17.4183 25.6189 16.9621 25.5118 16.5 25.5152H12" stroke="#3A5BC7" stroke-width="3" stroke-linecap="round" stroke-linejoin="round"/>
</g>
<defs>
<clipPath id="clip0_87_954">
<rect width="72" height="72" fill="white"/>
</clipPath>
</defs>
</svg>
