<svg width="72" height="72" viewBox="0 0 72 72" fill="none" xmlns="http://www.w3.org/2000/svg">
<path d="M41.0226 2.9375H61.0326C61.3031 2.93789 61.568 3.01458 61.7968 3.15878C62.0257 3.30297 62.2092 3.50881 62.3263 3.75264C62.4434 3.99647 62.4894 4.26839 62.4589 4.53716C62.4283 4.80592 62.3226 5.06063 62.1538 5.272L59 9.228C58.7965 9.48273 58.6858 9.79902 58.6858 10.125C58.6858 10.451 58.7965 10.7673 59 11.022L62.1625 14.978C62.3312 15.1894 62.437 15.4441 62.4675 15.7128C62.498 15.9816 62.4521 16.2535 62.335 16.4974C62.2178 16.7412 62.0343 16.947 61.8055 17.0912C61.5766 17.2354 61.3117 17.3121 61.0412 17.3125H41.0312L41.0226 2.9375Z" fill="#C1D0FF"/>
<path d="M41.0226 17.3125H41.3158L55.6908 2.9375H41.0226V17.3125Z" fill="#E1E9FF"/>
<path d="M55.5211 48.7076L48.7936 54.4288C48.2424 54.8907 47.538 55.1293 46.8195 55.0974C46.101 55.0654 45.4205 54.7653 44.9124 54.2563L43.0436 52.4163C42.505 51.8808 41.7763 51.5803 41.0168 51.5803C40.2572 51.5803 39.5286 51.8808 38.9899 52.4163L37.1499 54.2563C36.6418 54.7653 35.9613 55.0654 35.2428 55.0974C34.5243 55.1293 33.8199 54.8907 33.2686 54.4288L26.5411 48.7076L38.1561 30.2501C38.496 29.8113 38.9318 29.4562 39.4302 29.2119C39.9285 28.9676 40.4761 28.8406 41.0311 28.8406C41.5861 28.8406 42.1338 28.9676 42.6321 29.2119C43.1304 29.4562 43.5662 29.8113 43.9061 30.2501L55.5211 48.7076Z" fill="#E1E9FF"/>
<path d="M41.0311 44.2082C44.5991 44.2123 48.1366 43.5503 51.4616 42.2561L43.9061 30.2501C43.5662 29.8113 43.1304 29.4562 42.632 29.2119C42.1337 28.9676 41.5861 28.8406 41.0311 28.8406C40.4761 28.8406 39.9285 28.9676 39.4301 29.2119C38.9318 29.4562 38.496 29.8113 38.1561 30.2501L30.6006 42.2561C33.9256 43.5503 37.4631 44.2123 41.0311 44.2082Z" fill="white"/>
<path d="M55.5211 48.7076L48.7936 54.4288C48.2424 54.8907 47.538 55.1293 46.8195 55.0974C46.101 55.0654 45.4205 54.7653 44.9124 54.2563L43.0436 52.4163C42.505 51.8808 41.7763 51.5803 41.0168 51.5803C40.2572 51.5803 39.5286 51.8808 38.9899 52.4163L37.1499 54.2563C36.6418 54.7653 35.9613 55.0654 35.2428 55.0974C34.5243 55.1293 33.8199 54.8907 33.2686 54.4288L26.5411 48.7076L38.1561 30.2501C38.496 29.8113 38.9318 29.4562 39.4302 29.2119C39.9285 28.9676 40.4761 28.8406 41.0311 28.8406C41.5861 28.8406 42.1338 28.9676 42.6321 29.2119C43.1304 29.4562 43.5662 29.8113 43.9061 30.2501L55.5211 48.7076Z" stroke="#3A5BC7" stroke-width="3" stroke-linecap="round" stroke-linejoin="round"/>
<path d="M21.3375 56.9875L13.7188 69.0625H3.65625L13.7188 53.25C14.0658 52.8171 14.5025 52.4644 14.9988 52.2163C15.4951 51.9682 16.0392 51.8304 16.5938 51.8125C17.1477 51.8336 17.6907 51.9727 18.1866 52.2206C18.6824 52.4686 19.1195 52.8195 19.4688 53.25L21.3375 56.9875Z" fill="#C1D0FF" stroke="#3A5BC7" stroke-width="3" stroke-linecap="round" stroke-linejoin="round"/>
<path d="M68.3436 69.0625H13.7186L21.3374 56.9875L26.5411 48.7075L33.2686 54.4288C33.8199 54.8907 34.5243 55.1292 35.2428 55.0973C35.9613 55.0654 36.6418 54.7653 37.1499 54.2563L38.9899 52.4163C39.5285 51.8808 40.2572 51.5802 41.0168 51.5802C41.7763 51.5802 42.505 51.8808 43.0436 52.4163L44.9124 54.2563C45.4205 54.7653 46.1009 55.0654 46.8195 55.0973C47.538 55.1292 48.2424 54.8907 48.7936 54.4288L55.5211 48.7075L68.3436 69.0625Z" fill="#C1D0FF" stroke="#3A5BC7" stroke-width="3" stroke-linecap="round" stroke-linejoin="round"/>
<path d="M41.0226 28.8125V2.9375" stroke="#3A5BC7" stroke-width="3" stroke-linecap="round" stroke-linejoin="round"/>
<path d="M41.0226 2.9375H61.0326C61.3031 2.93789 61.568 3.01458 61.7968 3.15878C62.0257 3.30297 62.2092 3.50881 62.3263 3.75264C62.4434 3.99647 62.4894 4.26839 62.4589 4.53716C62.4283 4.80592 62.3226 5.06063 62.1538 5.272L59 9.228C58.7965 9.48273 58.6858 9.79902 58.6858 10.125C58.6858 10.451 58.7965 10.7673 59 11.022L62.1625 14.978C62.3312 15.1894 62.437 15.4441 62.4675 15.7128C62.498 15.9816 62.4521 16.2535 62.335 16.4974C62.2178 16.7412 62.0343 16.947 61.8055 17.0912C61.5766 17.2354 61.3117 17.3121 61.0412 17.3125H41.0312L41.0226 2.9375Z" stroke="#3A5BC7" stroke-width="3" stroke-linecap="round" stroke-linejoin="round"/>
</svg>
