<svg width="72" height="72" viewBox="0 0 72 72" fill="none" xmlns="http://www.w3.org/2000/svg">
<g clip-path="url(#clip0_87_943)">
<path d="M18 7.49707H54C54 7.49707 55.5 7.49707 55.5 8.99707V69.0001C55.5 69.0001 55.5 70.5001 54 70.5001H18C18 70.5001 16.5 70.5001 16.5 69.0001V8.99707C16.5 8.99707 16.5 7.49707 18 7.49707Z" fill="#C8F4E9"/>
<path d="M54.84 7.8C54.5978 7.61541 54.3043 7.51059 54 7.5H18C17.6022 7.5 17.2206 7.65804 16.9393 7.93934C16.658 8.22064 16.5 8.60218 16.5 9V46.128L54.84 7.8Z" fill="white"/>
<path d="M30.75 7.5H18C17.6022 7.5 17.2206 7.65804 16.9393 7.93934C16.658 8.22064 16.5 8.60218 16.5 9V69C16.5 69.3978 16.658 69.7794 16.9393 70.0607C17.2206 70.342 17.6022 70.5 18 70.5H54C54.3978 70.5 54.7794 70.342 55.0607 70.0607C55.342 69.7794 55.5 69.3978 55.5 69V29.949" stroke="#027864" stroke-width="3" stroke-linecap="round" stroke-linejoin="round"/>
<path d="M70.4999 66L67.4999 60.198V46.5C67.6259 41.166 61.2569 36.411 55.4999 31.5V47.847L52.4039 44.682C52.0627 44.3268 51.6545 44.0426 51.203 43.8458C50.7514 43.649 50.2654 43.5434 49.7729 43.5352C49.2804 43.527 48.7911 43.6163 48.3332 43.7979C47.8754 43.9796 47.458 44.25 47.105 44.5936C46.7521 44.9372 46.4706 45.3473 46.2768 45.8001C46.083 46.253 45.9807 46.7397 45.9758 47.2323C45.9708 47.7248 46.0634 48.2135 46.2481 48.6701C46.4328 49.1268 46.706 49.5424 47.0519 49.893L55.4999 58.5V63C55.9593 65.6837 56.9818 68.2398 58.4999 70.5" fill="#C8F4E9"/>
<path d="M70.4999 66L67.4999 60.198V46.5C67.6259 41.166 61.2569 36.411 55.4999 31.5V47.847L52.4039 44.682C52.0627 44.3268 51.6545 44.0426 51.203 43.8458C50.7514 43.649 50.2654 43.5434 49.7729 43.5352C49.2804 43.527 48.7911 43.6163 48.3332 43.7979C47.8754 43.9796 47.458 44.25 47.105 44.5936C46.7521 44.9372 46.4706 45.3473 46.2768 45.8001C46.083 46.253 45.9807 46.7397 45.9758 47.2323C45.9708 47.7248 46.0634 48.2135 46.2481 48.6701C46.4328 49.1268 46.706 49.5424 47.0519 49.893L55.4999 58.5V63C55.9593 65.6837 56.9818 68.2398 58.4999 70.5" stroke="#027864" stroke-width="3" stroke-linecap="round" stroke-linejoin="round"/>
<path d="M60.057 52.5L55.5 47.844" stroke="#027864" stroke-width="3" stroke-linecap="round" stroke-linejoin="round"/>
<path d="M1.5 6L4.5 11.802V25.5C4.374 30.837 10.743 35.589 16.5 40.5V24.156L19.596 27.318C19.9373 27.6732 20.3454 27.9574 20.797 28.1542C21.2485 28.351 21.7346 28.4566 22.2271 28.4648C22.7196 28.473 23.2088 28.3837 23.6667 28.2021C24.1246 28.0204 24.542 27.75 24.8949 27.4064C25.2478 27.0628 25.5293 26.6527 25.7231 26.1999C25.9169 25.747 26.0192 25.2603 26.0242 24.7677C26.0291 24.2752 25.9366 23.7865 25.7519 23.3299C25.5672 22.8732 25.294 22.4576 24.948 22.107L16.5 13.5V9C16.0401 6.31642 15.0177 3.76047 13.5 1.5" fill="#C8F4E9"/>
<path d="M1.5 6L4.5 11.802V25.5C4.374 30.837 10.743 35.589 16.5 40.5V24.156L19.596 27.318C19.9373 27.6732 20.3454 27.9574 20.797 28.1542C21.2485 28.351 21.7346 28.4566 22.2271 28.4648C22.7196 28.473 23.2088 28.3837 23.6667 28.2021C24.1246 28.0204 24.542 27.75 24.8949 27.4064C25.2478 27.0628 25.5293 26.6527 25.7231 26.1999C25.9169 25.747 26.0192 25.2603 26.0242 24.7677C26.0291 24.2752 25.9366 23.7865 25.7519 23.3299C25.5672 22.8732 25.294 22.4576 24.948 22.107L16.5 13.5V9C16.0401 6.31642 15.0177 3.76047 13.5 1.5" stroke="#027864" stroke-width="3" stroke-linecap="round" stroke-linejoin="round"/>
<path d="M11.9429 19.5L16.4999 24.156" stroke="#027864" stroke-width="3" stroke-linecap="round" stroke-linejoin="round"/>
<path d="M39 46.5H22.5" stroke="#027864" stroke-width="3" stroke-linecap="round" stroke-linejoin="round"/>
<path d="M49.5 37.5H22.5" stroke="#027864" stroke-width="3" stroke-linecap="round" stroke-linejoin="round"/>
<path d="M36 55.5H22.5" stroke="#027864" stroke-width="3" stroke-linecap="round" stroke-linejoin="round"/>
<path d="M37.4429 13.4971C37.4429 16.6797 38.7072 19.7319 40.9576 21.9824C43.208 24.2328 46.2603 25.4971 49.4429 25.4971C52.6255 25.4971 55.6777 24.2328 57.9282 21.9824C60.1786 19.7319 61.4429 16.6797 61.4429 13.4971C61.4429 10.3145 60.1786 7.26223 57.9282 5.01179C55.6777 2.76135 52.6255 1.49707 49.4429 1.49707C46.2603 1.49707 43.208 2.76135 40.9576 5.01179C38.7072 7.26223 37.4429 10.3145 37.4429 13.4971Z" fill="#9CE0D0" stroke="#027864" stroke-width="3" stroke-linecap="round" stroke-linejoin="round"/>
<path d="M61.5 4.5L50.562 15.435C50.4227 15.5747 50.2571 15.6855 50.0749 15.7611C49.8927 15.8368 49.6973 15.8757 49.5 15.8757C49.3027 15.8757 49.1073 15.8368 48.9251 15.7611C48.7429 15.6855 48.5773 15.5747 48.438 15.435L45 12" stroke="#027864" stroke-width="3" stroke-linecap="round" stroke-linejoin="round"/>
</g>
<defs>
<clipPath id="clip0_87_943">
<rect width="72" height="72" fill="white"/>
</clipPath>
</defs>
</svg>
