<svg width="72" height="72" viewBox="0 0 72 72" fill="none" xmlns="http://www.w3.org/2000/svg">
<g clip-path="url(#clip0_87_949)">
<path d="M5.9999 11.328V34.239C5.9876 41.6735 8.22382 48.9379 12.4149 55.0784C16.606 61.2189 22.5561 65.9484 29.4839 68.646L32.6999 69.9C34.8324 70.728 37.1974 70.728 39.3299 69.9L42.5309 68.661C49.4583 65.9601 55.4068 61.2272 59.5953 55.084C63.7838 48.9407 66.0164 41.6743 65.9999 34.239V11.328C66.004 10.4457 65.7545 9.58083 65.2812 8.83625C64.8078 8.09167 64.1305 7.49874 63.3299 7.12801C54.7211 3.33827 45.4056 1.41995 35.9999 1.50001C26.5953 1.41523 17.2798 3.32842 8.6699 7.11301C7.86693 7.4848 7.18808 8.08006 6.71457 8.82757C6.24106 9.57508 5.99294 10.4432 5.9999 11.328Z" fill="#C1D0FF"/>
<path d="M35.9999 1.50001C26.5953 1.41523 17.2798 3.32842 8.6699 7.11301C7.86693 7.4848 7.18808 8.08006 6.71457 8.82757C6.24106 9.57508 5.99294 10.4432 5.9999 11.328V34.239C5.9876 41.6735 8.22382 48.9379 12.4149 55.0784C16.606 61.2189 22.5561 65.9484 29.4839 68.646L32.6999 69.9C33.7536 70.3014 34.8723 70.5048 35.9999 70.5V1.50001Z" fill="#E1E9FF"/>
<path d="M5.9999 11.328V34.239C5.9876 41.6735 8.22382 48.9379 12.4149 55.0784C16.606 61.2189 22.5561 65.9484 29.4839 68.646L32.6999 69.9C34.8324 70.728 37.1974 70.728 39.3299 69.9L42.5309 68.661C49.4583 65.9601 55.4068 61.2272 59.5953 55.084C63.7838 48.9407 66.0164 41.6743 65.9999 34.239V11.328C66.004 10.4457 65.7545 9.58083 65.2812 8.83625C64.8078 8.09167 64.1305 7.49874 63.3299 7.12801C54.7211 3.33827 45.4056 1.41995 35.9999 1.50001C26.5953 1.41523 17.2798 3.32842 8.6699 7.11301C7.86693 7.4848 7.18808 8.08006 6.71457 8.82757C6.24106 9.57508 5.99294 10.4432 5.9999 11.328Z" stroke="#3A5BC7" stroke-width="3" stroke-linecap="round" stroke-linejoin="round"/>
<path d="M42 22.5H35.562C34.3094 22.5005 33.0936 22.9237 32.1115 23.7013C31.1294 24.4788 30.4385 25.5651 30.1508 26.7842C29.863 28.0033 29.9952 29.2839 30.5259 30.4185C31.0566 31.5532 31.9548 32.4754 33.075 33.036L38.925 35.961C40.0469 36.5207 40.9467 37.443 41.4786 38.5783C42.0105 39.7135 42.1433 40.9952 41.8553 42.2154C41.5674 43.4356 40.8756 44.5228 39.8923 45.3005C38.909 46.0782 37.6917 46.5009 36.438 46.5H30" stroke="#3A5BC7" stroke-width="3" stroke-linecap="round" stroke-linejoin="round"/>
<path d="M36 22.5061V18.0061" stroke="#3A5BC7" stroke-width="3" stroke-linecap="round" stroke-linejoin="round"/>
<path d="M36 51.0061V46.5061" stroke="#3A5BC7" stroke-width="3" stroke-linecap="round" stroke-linejoin="round"/>
</g>
<defs>
<clipPath id="clip0_87_949">
<rect width="72" height="72" fill="white"/>
</clipPath>
</defs>
</svg>
