<svg width="72" height="72" viewBox="0 0 72 72" fill="none" xmlns="http://www.w3.org/2000/svg">
<g clip-path="url(#clip0_87_952)">
<path d="M1.5 36C1.5 40.5306 2.39237 45.0168 4.12616 49.2026C5.85994 53.3883 8.4012 57.1916 11.6048 60.3952C14.8084 63.5988 18.6117 66.1401 22.7974 67.8738C26.9832 69.6076 31.4694 70.5 36 70.5C40.5306 70.5 45.0168 69.6076 49.2026 67.8738C53.3883 66.1401 57.1916 63.5988 60.3952 60.3952C63.5988 57.1916 66.1401 53.3883 67.8738 49.2026C69.6076 45.0168 70.5 40.5306 70.5 36C70.5 31.4694 69.6076 26.9832 67.8738 22.7974C66.1401 18.6117 63.5988 14.8084 60.3952 11.6048C57.1916 8.4012 53.3883 5.85994 49.2026 4.12616C45.0168 2.39237 40.5306 1.5 36 1.5C31.4694 1.5 26.9832 2.39237 22.7974 4.12616C18.6117 5.85994 14.8084 8.4012 11.6048 11.6048C8.4012 14.8084 5.85994 18.6117 4.12616 22.7974C2.39237 26.9832 1.5 31.4694 1.5 36Z" fill="#C1D0FF"/>
<path d="M36 14.9999C43.979 14.999 51.7117 17.7638 57.8812 22.8236C64.0508 27.8833 68.2759 34.9251 69.837 42.7499C70.8323 37.7466 70.7056 32.5848 69.4662 27.6363C68.2267 22.6879 65.9052 18.0758 62.669 14.1324C59.4328 10.189 55.3623 7.01234 50.7508 4.83122C46.1392 2.6501 41.1013 1.5188 36 1.5188C30.8987 1.5188 25.8608 2.6501 21.2492 4.83122C16.6377 7.01234 12.5672 10.189 9.33099 14.1324C6.09476 18.0758 3.77331 22.6879 2.53384 27.6363C1.29436 32.5848 1.16771 37.7466 2.163 42.7499C3.72411 34.9251 7.94917 27.8833 14.1188 22.8236C20.2883 17.7638 28.021 14.999 36 14.9999Z" fill="#E1E9FF"/>
<path d="M1.5 36C1.5 40.5306 2.39237 45.0168 4.12616 49.2026C5.85994 53.3883 8.4012 57.1916 11.6048 60.3952C14.8084 63.5988 18.6117 66.1401 22.7974 67.8738C26.9832 69.6076 31.4694 70.5 36 70.5C40.5306 70.5 45.0168 69.6076 49.2026 67.8738C53.3883 66.1401 57.1916 63.5988 60.3952 60.3952C63.5988 57.1916 66.1401 53.3883 67.8738 49.2026C69.6076 45.0168 70.5 40.5306 70.5 36C70.5 31.4694 69.6076 26.9832 67.8738 22.7974C66.1401 18.6117 63.5988 14.8084 60.3952 11.6048C57.1916 8.4012 53.3883 5.85994 49.2026 4.12616C45.0168 2.39237 40.5306 1.5 36 1.5C31.4694 1.5 26.9832 2.39237 22.7974 4.12616C18.6117 5.85994 14.8084 8.4012 11.6048 11.6048C8.4012 14.8084 5.85994 18.6117 4.12616 22.7974C2.39237 26.9832 1.5 31.4694 1.5 36Z" stroke="#3A5BC7" stroke-width="3" stroke-linecap="round" stroke-linejoin="round"/>
<path d="M36 24V37.5C36 38.6935 35.5259 39.8381 34.682 40.682C33.8381 41.5259 32.6935 42 31.5 42H30" stroke="#3A5BC7" stroke-width="3" stroke-linecap="round" stroke-linejoin="round"/>
<path d="M21 24V31.5" stroke="#3A5BC7" stroke-width="3" stroke-linecap="round" stroke-linejoin="round"/>
<path d="M51 24V31.5" stroke="#3A5BC7" stroke-width="3" stroke-linecap="round" stroke-linejoin="round"/>
<path d="M23.1991 51C26.2522 53.8897 30.2963 55.5001 34.5001 55.5001C38.7039 55.5001 42.748 53.8897 45.8011 51" stroke="#3A5BC7" stroke-width="3" stroke-linecap="round" stroke-linejoin="round"/>
</g>
<defs>
<clipPath id="clip0_87_952">
<rect width="72" height="72" fill="white"/>
</clipPath>
</defs>
</svg>
