<svg width="72" height="72" viewBox="0 0 72 72" fill="none" xmlns="http://www.w3.org/2000/svg">
<path d="M18.9368 22.0388C18.5948 25.6867 18.3548 32.1426 20.5088 34.8906C20.5088 34.8906 19.4948 27.7987 28.5846 18.9008C32.2446 15.3189 33.0906 10.4469 31.8126 6.79301C31.0866 4.72304 29.7606 3.01306 28.6086 1.81908C27.9366 1.11709 28.4526 -0.0408878 29.4306 0.00111152C35.3465 0.265107 44.9344 1.90908 49.0083 12.1329C50.7963 16.6209 50.9283 21.2588 50.0763 25.9747C49.5363 28.9867 47.6163 35.6826 51.9963 36.5045C55.1222 37.0925 56.6342 34.6086 57.3122 32.8206C57.5942 32.0766 58.5722 31.8906 59.1002 32.4846C64.3801 38.4905 64.8301 45.5644 63.7381 51.6543C61.6261 63.4261 49.7043 71.994 37.8605 71.994C23.0647 71.994 11.2869 63.5281 8.23295 48.2044C7.00297 42.0185 7.62696 29.7786 17.1668 21.1388C17.8748 20.4908 19.0328 21.0668 18.9368 22.0388Z" fill="#E1E9FF"/>
<path d="M43.2664 44.0524C37.8125 37.0325 40.2544 29.0226 41.5924 25.8307C41.7724 25.4107 41.2924 25.0147 40.9144 25.2727C38.5685 26.8687 33.7625 30.6246 31.5246 35.9105C28.4946 43.0564 28.7106 46.5544 30.5046 50.8263C31.5846 53.4003 30.3306 53.9463 29.7006 54.0423C29.0886 54.1383 28.5246 53.7303 28.0746 53.3043C26.7801 52.0614 25.8576 50.4824 25.4107 48.7443C25.3147 48.3723 24.8287 48.2703 24.6067 48.5763C22.9267 50.8983 22.0567 54.6242 22.0147 57.2582C21.8827 65.4001 28.6086 72 36.7445 72C46.9983 72 54.4682 60.6602 48.5763 51.1803C46.8663 48.4203 45.2584 46.6144 43.2664 44.0524Z" fill="#C1D0FF"/>
<path d="M21.9939 34.6816C21.9941 34.6828 21.9947 34.6846 21.9949 34.6855C21.9951 34.6871 21.9947 34.6885 21.9949 34.6895C21.9952 34.6916 21.996 34.6925 21.9958 34.6914C21.9956 34.6892 21.9944 34.6803 21.9929 34.665C21.99 34.6346 21.985 34.5785 21.9812 34.498C21.9736 34.3368 21.9697 34.0772 21.99 33.7305C22.0305 33.0378 22.168 31.9916 22.572 30.6709C23.3522 28.1209 25.1421 24.4914 29.2312 20.373L29.6335 19.9727C33.5729 16.1173 34.6372 10.8543 33.3591 6.69629L33.2283 6.29785V6.29688L33.0662 5.86133C32.389 4.14242 31.3729 2.68716 30.4011 1.55957C36.066 1.96238 43.8452 3.82632 47.4363 12.2559L47.615 12.6885C49.1697 16.5912 49.3925 20.6499 48.7419 24.8633L48.6003 25.708L48.5994 25.71C48.3587 27.0525 47.6912 29.7297 47.6912 32.0605C47.6912 33.2457 47.8545 34.5428 48.4529 35.6494C49.0936 36.834 50.1762 37.6877 51.7185 37.9775V37.9785C53.7806 38.3664 55.4069 37.7247 56.5779 36.667C57.4513 35.878 58.0399 34.8881 58.4353 34.0186C62.7293 39.2646 63.243 45.3423 62.3552 50.8408L62.2615 51.3896C60.2972 62.3372 49.0946 70.4941 37.8601 70.4941C30.7493 70.4941 24.4425 68.4616 19.5652 64.6621C14.848 60.9873 11.3885 55.598 9.84741 48.5938L9.70386 47.9111C8.57471 42.2312 9.11543 31.1433 17.3494 23.0283C17.2233 24.7451 17.1493 26.854 17.2908 28.9053C17.4592 31.3471 17.9491 34.0575 19.3279 35.8164C19.7468 36.3507 20.4729 36.5369 21.0974 36.2705C21.721 36.0043 22.0883 35.3528 21.9939 34.6816Z" stroke="#3A5BC7" stroke-width="3" stroke-linejoin="round"/>
</svg>
