<svg width="72" height="72" viewBox="0 0 72 72" fill="none" xmlns="http://www.w3.org/2000/svg">
<g clip-path="url(#clip0_87_948)">
<path d="M15 38.9971C15 41.7548 15.5432 44.4856 16.5985 47.0334C17.6539 49.5813 19.2007 51.8963 21.1508 53.8463C23.1008 55.7963 25.4158 57.3432 27.9636 58.3985C30.5115 59.4539 33.2422 59.9971 36 59.9971C38.7578 59.9971 41.4885 59.4539 44.0364 58.3985C46.5842 57.3432 48.8992 55.7963 50.8492 53.8463C52.7993 51.8963 54.3461 49.5813 55.4015 47.0334C56.4568 44.4856 57 41.7548 57 38.9971C57 36.2393 56.4568 33.5086 55.4015 30.9607C54.3461 28.4129 52.7993 26.0979 50.8492 24.1478C48.8992 22.1978 46.5842 20.6509 44.0364 19.5956C41.4885 18.5403 38.7578 17.9971 36 17.9971C33.2422 17.9971 30.5115 18.5403 27.9636 19.5956C25.4158 20.6509 23.1008 22.1978 21.1508 24.1478C19.2007 26.0979 17.6539 28.4129 16.5985 30.9607C15.5432 33.5086 15 36.2393 15 38.9971Z" fill="#EFBFDD"/>
<path d="M58.5 28.5C61.3321 28.498 64.0736 29.4977 66.2396 31.3223C68.4056 33.1469 69.8564 35.6787 70.3355 38.47C70.8146 41.2612 70.2911 44.132 68.8575 46.5744C67.4239 49.0168 65.1726 50.8735 62.502 51.816C62.0493 51.9764 61.5648 52.0258 61.0891 51.96C60.6134 51.8942 60.1604 51.7152 59.7683 51.438C59.3761 51.1608 59.0563 50.7935 58.8356 50.367C58.6149 49.9405 58.4998 49.4672 58.5 48.987V28.5Z" fill="#EFBFDD"/>
<path d="M13.5001 28.5C10.668 28.498 7.92651 29.4977 5.76052 31.3223C3.59452 33.1469 2.14365 35.6787 1.66456 38.47C1.18546 41.2612 1.70902 44.132 3.14262 46.5744C4.57621 49.0168 6.82745 50.8735 9.4981 51.816C9.95075 51.9764 10.4353 52.0258 10.911 51.96C11.3867 51.8942 11.8397 51.7152 12.2318 51.438C12.624 51.1608 12.9438 50.7935 13.1645 50.367C13.3852 49.9405 13.5003 49.4672 13.5001 48.987V28.5Z" fill="#EFBFDD"/>
<path d="M69.9 44.25C70.493 42.4475 70.65 40.5301 70.3583 38.6551C70.0666 36.7802 69.3344 35.0011 68.2218 33.464C67.1092 31.9269 65.648 30.6755 63.958 29.8126C62.268 28.9497 60.3975 28.4998 58.5 28.5V36C61.0268 35.9998 63.4892 36.7972 65.5362 38.2786C67.5832 39.76 69.1104 41.8497 69.9 44.25Z" fill="#EFBFDD"/>
<path d="M1.5 40.5C1.49994 41.7739 1.70247 43.0397 2.1 44.25C2.88963 41.8497 4.41678 39.76 6.46379 38.2786C8.5108 36.7972 10.9732 35.9998 13.5 36V28.5C10.3174 28.5 7.26516 29.7643 5.01472 32.0147C2.76428 34.2652 1.5 37.3174 1.5 40.5Z" fill="#EFBFDD"/>
<path d="M48 67.4998H51C56.802 67.4998 61.5 64.3018 61.5 58.4998V51.9868" stroke="#C2298A" stroke-width="3" stroke-linecap="round" stroke-linejoin="round"/>
<path d="M58.5 28.5C61.3321 28.498 64.0736 29.4977 66.2396 31.3223C68.4056 33.1469 69.8564 35.6787 70.3355 38.47C70.8146 41.2612 70.2911 44.132 68.8575 46.5744C67.4239 49.0168 65.1726 50.8735 62.502 51.816C62.0493 51.9764 61.5648 52.0258 61.0891 51.96C60.6134 51.8942 60.1604 51.7152 59.7683 51.438C59.3761 51.1608 59.0563 50.7935 58.8356 50.367C58.6149 49.9405 58.4998 49.4672 58.5 48.987V28.5Z" stroke="#C2298A" stroke-width="3" stroke-linecap="round" stroke-linejoin="round"/>
<path d="M13.5001 28.5C10.668 28.498 7.92651 29.4977 5.76052 31.3223C3.59452 33.1469 2.14365 35.6787 1.66456 38.47C1.18546 41.2612 1.70902 44.132 3.14262 46.5744C4.57621 49.0168 6.82745 50.8735 9.4981 51.816C9.95075 51.9764 10.4353 52.0258 10.911 51.96C11.3867 51.8942 11.8397 51.7152 12.2318 51.438C12.6239 51.1608 12.9438 50.7935 13.1645 50.367C13.3852 49.9405 13.5003 49.4672 13.5001 48.987V28.5Z" stroke="#C2298A" stroke-width="3" stroke-linecap="round" stroke-linejoin="round"/>
<path d="M58.5 33V27C58.5 21.0326 56.1295 15.3097 51.9099 11.0901C47.6903 6.87053 41.9674 4.5 36 4.5C30.0326 4.5 24.3097 6.87053 20.0901 11.0901C15.8705 15.3097 13.5 21.0326 13.5 27V33" stroke="#C2298A" stroke-width="3" stroke-linecap="round" stroke-linejoin="round"/>
<path d="M34.5 64.5H46.5C46.8978 64.5 47.2794 64.658 47.5607 64.9393C47.842 65.2206 48 65.6022 48 66V69C48 69.3978 47.842 69.7794 47.5607 70.0607C47.2794 70.342 46.8978 70.5 46.5 70.5H34.5C33.7044 70.5 32.9413 70.1839 32.3787 69.6213C31.8161 69.0587 31.5 68.2956 31.5 67.5C31.5 66.7044 31.8161 65.9413 32.3787 65.3787C32.9413 64.8161 33.7044 64.5 34.5 64.5Z" fill="#EFBFDD" stroke="#C2298A" stroke-width="3" stroke-linecap="round" stroke-linejoin="round"/>
<path d="M45.6751 46.9917C44.4047 48.2625 42.8964 49.2706 41.2363 49.9584C39.5763 50.6462 37.797 51.0003 36.0001 51.0003C34.2032 51.0003 32.4239 50.6462 30.7638 49.9584C29.1037 49.2706 27.5954 48.2625 26.3251 46.9917" stroke="#C2298A" stroke-width="3" stroke-linecap="round" stroke-linejoin="round"/>
<path d="M26.25 31.98C26.3983 31.98 26.5433 32.024 26.6667 32.1064C26.79 32.1888 26.8861 32.3059 26.9429 32.443C26.9997 32.58 27.0145 32.7308 26.9856 32.8763C26.9567 33.0218 26.8852 33.1554 26.7803 33.2603C26.6754 33.3652 26.5418 33.4366 26.3963 33.4656C26.2508 33.4945 26.1 33.4797 25.963 33.4229C25.8259 33.3661 25.7088 33.27 25.6264 33.1467C25.544 33.0233 25.5 32.8783 25.5 32.73C25.5 32.5311 25.579 32.3403 25.7197 32.1996C25.8603 32.059 26.0511 31.98 26.25 31.98Z" fill="#C2298A" stroke="#C2298A" stroke-width="3" stroke-linecap="round" stroke-linejoin="round"/>
<path d="M45.75 31.98C45.8983 31.98 46.0433 32.024 46.1667 32.1064C46.29 32.1888 46.3861 32.3059 46.4429 32.443C46.4997 32.58 46.5145 32.7308 46.4856 32.8763C46.4567 33.0218 46.3852 33.1554 46.2803 33.2603C46.1754 33.3652 46.0418 33.4366 45.8963 33.4656C45.7508 33.4945 45.6 33.4797 45.463 33.4229C45.3259 33.3661 45.2088 33.27 45.1264 33.1467C45.044 33.0233 45 32.8783 45 32.73C45 32.5311 45.079 32.3403 45.2197 32.1996C45.3603 32.059 45.5511 31.98 45.75 31.98Z" fill="#C2298A" stroke="#C2298A" stroke-width="3" stroke-linecap="round" stroke-linejoin="round"/>
</g>
<defs>
<clipPath id="clip0_87_948">
<rect width="72" height="72" fill="white"/>
</clipPath>
</defs>
</svg>
