<svg width="72" height="72" viewBox="0 0 72 72" fill="none" xmlns="http://www.w3.org/2000/svg">
<path d="M28.5 45.0389C30.9735 46.4588 33.7724 47.2142 36.6245 47.2315C39.4765 47.2489 42.2844 46.5276 44.775 45.1379L48 47.9999V52.4999H52.5L54 54.0749V58.4999H57.951L61.137 61.4999H67.5V55.1369L51.138 38.7749C52.6239 36.1083 53.3409 33.0819 53.2093 30.0322C53.0777 26.9824 52.1027 24.029 50.3927 21.5003C48.6826 18.9717 46.3047 16.967 43.5233 15.7092C40.7419 14.4514 37.6661 13.9899 34.638 14.3759L28.5 45.0389Z" fill="#FFDCD3"/>
<path d="M45 26.9999C45.0065 22.637 43.6481 18.3813 41.115 14.8289C39.0021 14.2508 36.7957 14.0968 34.623 14.3759L28.5 45.0389C29.5522 45.6439 30.6679 46.1309 31.827 46.4909C35.7175 44.9283 39.0513 42.2368 41.399 38.7631C43.7467 35.2895 45.0008 31.1925 45 26.9999Z" fill="#FDBDAF"/>
<path d="M28.5 45.0389C30.9735 46.4588 33.7724 47.2142 36.6245 47.2315C39.4765 47.2489 42.2844 46.5276 44.775 45.1379L48 47.9999V52.4999H52.5L54 54.0749V58.4999H57.951L61.137 61.4999H67.5V55.1369L51.138 38.7749C52.6239 36.1083 53.3409 33.0819 53.2093 30.0322C53.0777 26.9824 52.1027 24.029 50.3927 21.5003C48.6826 18.9717 46.3047 16.967 43.5233 15.7092C40.7419 14.4514 37.6661 13.9899 34.638 14.3759" stroke="#D13415" stroke-width="3" stroke-linecap="round" stroke-linejoin="round"/>
<path d="M23.9999 10.5C20.0238 10.5089 16.1847 11.9532 13.1887 14.5673C10.1927 17.1814 8.24146 20.7894 7.69388 24.7276C7.1463 28.6658 8.03923 32.6693 10.2084 36.0016C12.3776 39.3338 15.6771 41.7708 19.4999 42.864V46.5L16.4999 49.5L19.4999 52.5V55.5L16.4999 58.5L19.4999 61.5V66L23.9999 70.5L28.4999 66V42.864C32.3227 41.7708 35.6222 39.3338 37.7914 36.0016C39.9606 32.6693 40.8535 28.6658 40.3059 24.7276C39.7583 20.7894 37.8071 17.1814 34.8111 14.5673C31.8151 11.9532 27.976 10.5089 23.9999 10.5ZM23.9999 28.5C22.8132 28.5 21.6532 28.1481 20.6665 27.4888C19.6798 26.8295 18.9107 25.8925 18.4566 24.7961C18.0025 23.6997 17.8837 22.4933 18.1152 21.3295C18.3467 20.1656 18.9181 19.0965 19.7573 18.2574C20.5964 17.4182 21.6655 16.8468 22.8294 16.6153C23.9932 16.3838 25.1996 16.5026 26.296 16.9567C27.3924 17.4108 28.3294 18.1799 28.9887 19.1666C29.648 20.1533 29.9999 21.3133 29.9999 22.5C29.9999 24.0913 29.3678 25.6174 28.2425 26.7426C27.1173 27.8679 25.5912 28.5 23.9999 28.5Z" fill="#FDBDAF"/>
<path d="M23.9999 70.5V28.5C22.4086 28.5 20.8825 27.8679 19.7573 26.7426C18.632 25.6174 17.9999 24.0913 17.9999 22.5C17.9999 20.9087 18.632 19.3826 19.7573 18.2574C20.8825 17.1321 22.4086 16.5 23.9999 16.5V10.5C20.0238 10.5089 16.1847 11.9532 13.1887 14.5673C10.1927 17.1814 8.24146 20.7894 7.69388 24.7276C7.1463 28.6658 8.03923 32.6693 10.2084 36.0016C12.3776 39.3338 15.6771 41.7708 19.4999 42.864V46.5L16.4999 49.5L19.4999 52.5V55.5L16.4999 58.5L19.4999 61.5V66L23.9999 70.5Z" fill="#FFDCD3"/>
<path d="M23.9999 10.5C20.0238 10.5089 16.1847 11.9532 13.1887 14.5673C10.1927 17.1814 8.24146 20.7894 7.69388 24.7276C7.1463 28.6658 8.03923 32.6693 10.2084 36.0016C12.3776 39.3338 15.6771 41.7708 19.4999 42.864V46.5L16.4999 49.5L19.4999 52.5V55.5L16.4999 58.5L19.4999 61.5V66L23.9999 70.5L28.4999 66V42.864C32.3227 41.7708 35.6222 39.3338 37.7914 36.0016C39.9606 32.6693 40.8535 28.6658 40.3059 24.7276C39.7583 20.7894 37.8071 17.1814 34.8111 14.5673C31.8151 11.9532 27.976 10.5089 23.9999 10.5ZM23.9999 28.5C22.8132 28.5 21.6532 28.1481 20.6665 27.4888C19.6798 26.8295 18.9107 25.8925 18.4566 24.7961C18.0025 23.6997 17.8837 22.4933 18.1152 21.3295C18.3467 20.1656 18.9181 19.0965 19.7573 18.2574C20.5964 17.4182 21.6655 16.8468 22.8294 16.6153C23.9932 16.3838 25.1996 16.5026 26.296 16.9567C27.3924 17.4108 28.3294 18.1799 28.9887 19.1666C29.648 20.1533 29.9999 21.3133 29.9999 22.5C29.9999 24.0913 29.3678 25.6174 28.2425 26.7426C27.1173 27.8679 25.5912 28.5 23.9999 28.5Z" stroke="#D13415" stroke-width="3" stroke-linecap="round" stroke-linejoin="round"/>
<path d="M24 21V7.5C24 5.9087 24.6321 4.38258 25.7574 3.25736C26.8826 2.13214 28.4087 1.5 30 1.5C31.5913 1.5 33.1174 2.13214 34.2426 3.25736C35.3679 4.38258 36 5.9087 36 7.5V14.259" stroke="#D13415" stroke-width="3" stroke-linecap="round" stroke-linejoin="round"/>
</svg>
