<svg width="72" height="72" viewBox="0 0 72 72" fill="none" xmlns="http://www.w3.org/2000/svg">
<g clip-path="url(#clip0_87_945)">
<path d="M25.5 27C25.5 27.3978 25.658 27.7794 25.9393 28.0607C26.2206 28.342 26.6022 28.5 27 28.5H46.5V40.5L60 28.5H70.5V1.5H25.5V27Z" fill="#C1D0FF"/>
<path d="M63.75 1.5H25.5V27C25.5 27.3978 25.658 27.7794 25.9393 28.0607C26.2206 28.342 26.6022 28.5 27 28.5H36.75L63.75 1.5Z" fill="#E1E9FF"/>
<path d="M1.5 70.5C1.5 64.9305 3.71249 59.589 7.65076 55.6508C11.589 51.7125 16.9305 49.5 22.5 49.5C28.0695 49.5 33.411 51.7125 37.3492 55.6508C41.2875 59.589 43.5 64.9305 43.5 70.5H1.5Z" fill="#E1E9FF"/>
<path d="M22.5 49.5C16.9305 49.5 11.589 51.7125 7.65076 55.6508C3.71249 59.589 1.5 64.9305 1.5 70.5H22.5V49.5Z" fill="white"/>
<path d="M9.75 32.25C9.75 35.6315 11.0933 38.8745 13.4844 41.2656C15.8755 43.6567 19.1185 45 22.5 45C25.8815 45 29.1245 43.6567 31.5156 41.2656C33.9067 38.8745 35.25 35.6315 35.25 32.25C35.25 28.8685 33.9067 25.6255 31.5156 23.2344C29.1245 20.8433 25.8815 19.5 22.5 19.5C19.1185 19.5 15.8755 20.8433 13.4844 23.2344C11.0933 25.6255 9.75 28.8685 9.75 32.25Z" fill="#E1E9FF"/>
<path d="M22.5 45C19.1185 45 15.8755 43.6567 13.4844 41.2656C11.0933 38.8745 9.75 35.6315 9.75 32.25C9.75 28.8685 11.0933 25.6255 13.4844 23.2344C15.8755 20.8433 19.1185 19.5 22.5 19.5V45Z" fill="white"/>
<path d="M9.75 32.25C9.75 35.6315 11.0933 38.8745 13.4844 41.2656C15.8755 43.6567 19.1185 45 22.5 45C25.8815 45 29.1245 43.6567 31.5156 41.2656C33.9067 38.8745 35.25 35.6315 35.25 32.25C35.25 28.8685 33.9067 25.6255 31.5156 23.2344C29.1245 20.8433 25.8815 19.5 22.5 19.5C19.1185 19.5 15.8755 20.8433 13.4844 23.2344C11.0933 25.6255 9.75 28.8685 9.75 32.25Z" stroke="#3A5BC7" stroke-width="3" stroke-linecap="round" stroke-linejoin="round"/>
<path d="M1.5 70.5C1.5 64.9305 3.71249 59.589 7.65076 55.6508C11.589 51.7125 16.9305 49.5 22.5 49.5C28.0695 49.5 33.411 51.7125 37.3492 55.6508C41.2875 59.589 43.5 64.9305 43.5 70.5H1.5Z" stroke="#3A5BC7" stroke-width="3" stroke-linecap="round" stroke-linejoin="round"/>
<path d="M40.491 28.5H46.5V40.5L60 28.5H70.5V1.5H25.5V13.5" stroke="#3A5BC7" stroke-width="3" stroke-linecap="round" stroke-linejoin="round"/>
<path d="M48 14.25C48.0986 14.2496 48.1963 14.2687 48.2875 14.3063C48.3787 14.3438 48.4615 14.3991 48.5312 14.4688C48.6009 14.5385 48.6562 14.6214 48.6937 14.7125C48.7313 14.8037 48.7504 14.9014 48.75 15C48.7504 15.0986 48.7313 15.1963 48.6937 15.2875C48.6562 15.3787 48.6009 15.4615 48.5312 15.5312C48.4615 15.6009 48.3787 15.6562 48.2875 15.6937C48.1963 15.7313 48.0986 15.7504 48 15.75C47.8011 15.75 47.6103 15.671 47.4697 15.5303C47.329 15.3897 47.25 15.1989 47.25 15C47.25 14.8011 47.329 14.6103 47.4697 14.4697C47.6103 14.329 47.8011 14.25 48 14.25Z" fill="#3A5BC7" stroke="#3A5BC7" stroke-width="3" stroke-linecap="round" stroke-linejoin="round"/>
<path d="M58.5 14.25C58.5986 14.2496 58.6963 14.2687 58.7875 14.3063C58.8787 14.3438 58.9615 14.3991 59.0312 14.4688C59.1009 14.5385 59.1562 14.6214 59.1937 14.7125C59.2313 14.8037 59.2504 14.9014 59.25 15C59.2504 15.0986 59.2313 15.1963 59.1937 15.2875C59.1562 15.3787 59.1009 15.4615 59.0312 15.5312C58.9615 15.6009 58.8787 15.6562 58.7875 15.6937C58.6963 15.7313 58.5986 15.7504 58.5 15.75C58.3011 15.75 58.1103 15.671 57.9697 15.5303C57.829 15.3897 57.75 15.1989 57.75 15C57.75 14.8011 57.829 14.6103 57.9697 14.4697C58.1103 14.329 58.3011 14.25 58.5 14.25Z" fill="#3A5BC7" stroke="#3A5BC7" stroke-width="3" stroke-linecap="round" stroke-linejoin="round"/>
<path d="M37.5 14.25C37.3011 14.25 37.1103 14.329 36.9697 14.4697C36.829 14.6103 36.75 14.8011 36.75 15C36.75 15.1989 36.829 15.3897 36.9697 15.5303C37.1103 15.671 37.3011 15.75 37.5 15.75C37.6989 15.75 37.8897 15.671 38.0303 15.5303C38.171 15.3897 38.25 15.1989 38.25 15C38.25 14.8011 38.171 14.6103 38.0303 14.4697C37.8897 14.329 37.6989 14.25 37.5 14.25Z" fill="#3A5BC7" stroke="#3A5BC7" stroke-width="3" stroke-linecap="round" stroke-linejoin="round"/>
</g>
<defs>
<clipPath id="clip0_87_945">
<rect width="72" height="72" fill="white"/>
</clipPath>
</defs>
</svg>
