<svg width="72" height="72" viewBox="0 0 72 72" fill="none" xmlns="http://www.w3.org/2000/svg">
<g clip-path="url(#clip0_196_3297)">
<circle cx="38.1272" cy="15.7322" r="8.1272" fill="#F2E2FC"/>
<circle cx="60.5" cy="15.5" r="7.5" fill="#F2E2FC"/>
<circle cx="49.4965" cy="14.9297" r="10.9297" fill="#F2E2FC"/>
<circle cx="12.9221" cy="59.2194" r="6.64003" fill="#F2E2FC"/>
<circle cx="28.9498" cy="58.7614" r="6.64003" fill="#F2E2FC"/>
<circle cx="21.3939" cy="56.9297" r="8.92969" fill="#F2E2FC"/>
<path d="M52.4983 48.0536C59.0473 48.0536 70.2943 44.3576 70.4983 40.4396C70.6453 37.5266 61.1533 30.0536 50.9983 30.0536H20.9983L11.9983 22.5536C11.4164 21.9711 10.7067 21.5323 9.92556 21.2719C9.14443 21.0115 8.31336 20.9368 7.49831 21.0536H1.49831L14.9983 45.0536C15.4736 45.8606 16.1253 46.5497 16.9046 47.0692C17.6839 47.5888 18.5706 47.9253 19.4983 48.0536H52.4983Z" fill="white"/>
<path d="M70.4714 40.5537C70.0574 44.4297 58.9814 48.0537 52.4984 48.0537H19.4984C18.5707 47.9254 17.684 47.5888 16.9047 47.0693C16.1254 46.5498 15.4737 45.8607 14.9984 45.0537L12.4664 40.5537H70.4714Z" fill="#F2E2FC"/>
<path d="M52.4983 48.0536C59.0473 48.0536 70.2943 44.3576 70.4983 40.4396C70.6453 37.5266 61.1533 30.0536 50.9983 30.0536H20.9983L11.9983 22.5536C11.4164 21.9711 10.7067 21.5323 9.92556 21.2719C9.14443 21.0115 8.31336 20.9368 7.49831 21.0536H1.49831L14.9983 45.0536C15.4736 45.8606 16.1253 46.5497 16.9046 47.0692C17.6839 47.5888 18.5706 47.9253 19.4983 48.0536H52.4983Z" stroke="#8145B5" stroke-width="3" stroke-linecap="round" stroke-linejoin="round"/>
<path d="M37.4983 51.0537H50.9983C51.3961 51.0537 51.7776 50.8957 52.059 50.6144C52.3403 50.3331 52.4983 49.9515 52.4983 49.5537V43.5537C52.4983 43.1559 52.3403 42.7744 52.059 42.4931C51.7776 42.2117 51.3961 42.0537 50.9983 42.0537H37.4983C34.0453 42.0537 33.1063 43.4487 29.9983 46.5537C34.3813 51.0837 35.3983 51.0537 37.4983 51.0537Z" fill="white" stroke="#8145B5" stroke-width="3" stroke-linecap="round" stroke-linejoin="round"/>
<path d="M46.4983 51.0537V42.0537V51.0537Z" fill="white"/>
<path d="M46.4983 51.0537V42.0537" stroke="#8145B5" stroke-width="3" stroke-linecap="round" stroke-linejoin="round"/>
<path d="M16.4983 39.0537H7.49829" stroke="#8145B5" stroke-width="3" stroke-linecap="round" stroke-linejoin="round"/>
<path d="M43.4983 36.0537H38.9983" stroke="#8145B5" stroke-width="3" stroke-linecap="round" stroke-linejoin="round"/>
<path d="M31.4983 36.0537H26.9983" stroke="#8145B5" stroke-width="3" stroke-linecap="round" stroke-linejoin="round"/>
<path d="M70.4983 40.4127C69.5323 40.5067 68.5533 40.5537 67.5613 40.5537C63.2855 40.6226 59.0506 39.7123 55.1808 37.8923C51.3111 36.0723 47.9091 33.3911 45.2353 30.0537H50.9983C61.1233 30.0537 70.5883 37.4847 70.4983 40.4127Z" fill="#E0C4F4" stroke="#8145B5" stroke-width="3" stroke-linecap="round" stroke-linejoin="round"/>
</g>
<defs>
<clipPath id="clip0_196_3297">
<rect width="72" height="72" fill="white"/>
</clipPath>
</defs>
</svg>
