<svg width="72" height="72" viewBox="0 0 72 72" fill="none" xmlns="http://www.w3.org/2000/svg">
<g clip-path="url(#clip0_405_11476)">
<path d="M5.9999 11.328V34.239C5.9876 41.6735 8.22382 48.9379 12.4149 55.0784C16.606 61.2189 22.5561 65.9484 29.4839 68.646L32.6999 69.9C34.8324 70.728 37.1974 70.728 39.3299 69.9L42.5309 68.661C49.4583 65.9601 55.4068 61.2272 59.5953 55.084C63.7838 48.9407 66.0164 41.6743 65.9999 34.239V11.328C66.004 10.4457 65.7545 9.58083 65.2812 8.83625C64.8078 8.09167 64.1305 7.49874 63.3299 7.12801C54.7211 3.33827 45.4056 1.41995 35.9999 1.50001C26.5953 1.41523 17.2798 3.32842 8.6699 7.11301C7.86693 7.4848 7.18808 8.08006 6.71457 8.82757C6.24106 9.57508 5.99294 10.4432 5.9999 11.328Z" fill="#C1D0FF"/>
<path d="M35.9999 1.50001C26.5953 1.41523 17.2798 3.32842 8.6699 7.11301C7.86693 7.4848 7.18808 8.08006 6.71457 8.82757C6.24106 9.57508 5.99294 10.4432 5.9999 11.328V34.239C5.9876 41.6735 8.22382 48.9379 12.4149 55.0784C16.606 61.2189 22.5561 65.9484 29.4839 68.646L32.6999 69.9C33.7536 70.3014 34.8723 70.5048 35.9999 70.5V1.50001Z" fill="#E1E9FF"/>
<path d="M5.9999 11.328V34.239C5.9876 41.6735 8.22382 48.9379 12.4149 55.0784C16.606 61.2189 22.5561 65.9484 29.4839 68.646L32.6999 69.9C34.8324 70.728 37.1974 70.728 39.3299 69.9L42.5309 68.661C49.4583 65.9601 55.4068 61.2272 59.5953 55.084C63.7838 48.9407 66.0164 41.6743 65.9999 34.239V11.328C66.004 10.4457 65.7545 9.58083 65.2812 8.83625C64.8078 8.09167 64.1305 7.49874 63.3299 7.12801C54.7211 3.33827 45.4056 1.41995 35.9999 1.50001C26.5953 1.41523 17.2798 3.32842 8.6699 7.11301C7.86693 7.4848 7.18808 8.08006 6.71457 8.82757C6.24106 9.57508 5.99294 10.4432 5.9999 11.328Z" stroke="#3A5BC7" stroke-width="3" stroke-linecap="round" stroke-linejoin="round"/>
<path d="M22.75 35.9481L32.9525 46.25L53.75 25.25" stroke="#3A5BC7" stroke-width="3" stroke-linecap="round" stroke-linejoin="round"/>
</g>
<defs>
<clipPath id="clip0_405_11476">
<rect width="72" height="72" fill="white"/>
</clipPath>
</defs>
</svg>
