<svg width="72" height="72" viewBox="0 0 72 72" fill="none" xmlns="http://www.w3.org/2000/svg">
<g clip-path="url(#clip0_405_11517)">
<path d="M8.69691 15.8169V36.9904C8.68576 43.861 10.7124 50.5745 14.5108 56.2493C18.3092 61.9242 23.7017 66.2951 29.9802 68.7881L32.8949 69.947C34.8275 70.7121 36.9709 70.7121 38.9036 69.947L41.8046 68.8019C48.0828 66.3059 53.4739 61.9319 57.2699 56.2545C61.0659 50.5771 63.0893 43.8618 63.0743 36.9904V15.8169C63.078 15.0015 62.8519 14.2022 62.4229 13.5141C61.994 12.826 61.3801 12.278 60.6545 11.9354C52.8525 8.43303 44.4099 6.6602 35.8856 6.73418C27.3623 6.65583 18.9198 8.42393 11.1167 11.9215C10.389 12.2651 9.77375 12.8152 9.34461 13.506C8.91547 14.1969 8.6906 14.9991 8.69691 15.8169Z" fill="#C1D0FF"/>
<path d="M35.8856 6.73419C27.3623 6.65581 18.9198 8.42444 11.1167 11.9231C10.389 12.2668 9.77375 12.8171 9.34461 13.5081C8.91547 14.1991 8.6906 15.0016 8.69691 15.8196V36.9995C8.68576 43.8723 10.7124 50.5878 14.5108 56.2643C18.3091 61.9409 23.7016 66.3131 29.9802 68.8069L32.8948 69.9661C33.8498 70.3371 34.8637 70.5252 35.8856 70.5208V6.73419Z" fill="#E1E9FF"/>
<path d="M8.69691 15.8169V36.9904C8.68576 43.861 10.7124 50.5745 14.5108 56.2493C18.3092 61.9242 23.7017 66.2951 29.9802 68.7881L32.8949 69.947C34.8275 70.7121 36.9709 70.7121 38.9036 69.947L41.8046 68.8019C48.0828 66.3059 53.4739 61.9319 57.2699 56.2545C61.0659 50.5771 63.0893 43.8618 63.0743 36.9904V15.8169C63.078 15.0015 62.8519 14.2022 62.4229 13.5141C61.994 12.826 61.3802 12.278 60.6545 11.9354C52.8525 8.43303 44.4099 6.6602 35.8856 6.73418C27.3623 6.65583 18.9198 8.42393 11.1167 11.9215C10.389 12.2651 9.77375 12.8152 9.34461 13.506C8.91547 14.1969 8.6906 14.9991 8.69691 15.8169Z" stroke="#3A5BC7" stroke-width="3" stroke-linecap="round" stroke-linejoin="round"/>
<path d="M25.4283 38.2514L33.6882 45.9464L50.5257 30.2605" stroke="#3A5BC7" stroke-width="3" stroke-linecap="round" stroke-linejoin="round"/>
<path d="M59.0701 2.7268L61.7528 8.94976H66.9717C67.2354 8.93942 67.4959 9.01077 67.7175 9.15406C67.9391 9.29735 68.1111 9.5056 68.2099 9.75032C68.3087 9.99505 68.3296 10.2643 68.2695 10.5213C68.2095 10.7783 68.0716 11.0105 67.8746 11.1862L63.3425 15.2233L65.8526 20.9965C65.9627 21.2607 65.9873 21.5527 65.9228 21.8315C65.8584 22.1104 65.7081 22.3619 65.4931 22.5509C65.2782 22.7399 65.0094 22.8567 64.7246 22.8849C64.4398 22.9131 64.1534 22.8514 63.9055 22.7083L57.8499 19.2917L51.7838 22.7083C51.536 22.8514 51.2495 22.9131 50.9647 22.8849C50.6799 22.8567 50.4111 22.7399 50.1962 22.5509C49.9812 22.3619 49.831 22.1104 49.7665 21.8315C49.702 21.5527 49.7266 21.2607 49.8367 20.9965L52.3503 15.2303L47.8182 11.1932C47.6207 11.0183 47.4822 10.7867 47.4214 10.5301C47.3606 10.2735 47.3806 10.0043 47.4787 9.75949C47.5768 9.51467 47.7482 9.30614 47.9693 9.16244C48.1905 9.01874 48.4506 8.9469 48.7142 8.95674H53.9435L56.6297 2.73377C56.749 2.51196 56.9262 2.32661 57.1425 2.19742C57.3587 2.06822 57.6059 2 57.8577 2C58.1096 2 58.3568 2.06822 58.573 2.19742C58.7892 2.32661 58.9664 2.51196 59.0858 2.73377L59.0701 2.7268Z" fill="#E1E9FF"/>
<path d="M59.0701 2.7268L61.7528 8.94976H66.9717C67.2354 8.93942 67.4959 9.01077 67.7175 9.15406C67.9391 9.29735 68.1111 9.5056 68.2099 9.75032C68.3087 9.99505 68.3296 10.2643 68.2695 10.5213C68.2095 10.7783 68.0716 11.0105 67.8746 11.1862L63.3425 15.2233L65.8526 20.9965C65.9627 21.2607 65.9873 21.5527 65.9228 21.8315C65.8584 22.1104 65.7081 22.362 65.4931 22.5509C65.2782 22.7399 65.0094 22.8567 64.7246 22.8849C64.4398 22.9131 64.1534 22.8514 63.9055 22.7083L57.8499 19.2917L51.7838 22.7083C51.536 22.8514 51.2495 22.9131 50.9647 22.8849C50.6799 22.8567 50.4111 22.7399 50.1962 22.5509C49.9812 22.362 49.831 22.1104 49.7665 21.8315C49.702 21.5527 49.7266 21.2607 49.8367 20.9965L52.3503 15.2303L47.8182 11.1932C47.6207 11.0183 47.4822 10.7867 47.4214 10.5301C47.3606 10.2735 47.3806 10.0043 47.4787 9.75949C47.5768 9.51467 47.7482 9.30614 47.9693 9.16244C48.1905 9.01874 48.4506 8.9469 48.7142 8.95674H53.9435L56.6297 2.73377C56.749 2.51196 56.9262 2.32661 57.1425 2.19742C57.3587 2.06822 57.6059 2 57.8577 2C58.1096 2 58.3568 2.06822 58.573 2.19742C58.7892 2.32661 58.9664 2.51196 59.0858 2.73377L59.0701 2.7268Z" stroke="#3A5BC7" stroke-width="3" stroke-linecap="round" stroke-linejoin="round"/>
</g>
<defs>
<clipPath id="clip0_405_11517">
<rect width="72" height="72" fill="white"/>
</clipPath>
</defs>
</svg>
