<svg width="72" height="72" viewBox="0 0 72 72" fill="none" xmlns="http://www.w3.org/2000/svg">
<g clip-path="url(#clip0_87_951)">
<path d="M1.5 36C1.5 40.5306 2.39237 45.0168 4.12616 49.2026C5.85994 53.3883 8.4012 57.1916 11.6048 60.3952C14.8084 63.5988 18.6117 66.1401 22.7974 67.8738C26.9832 69.6076 31.4694 70.5 36 70.5C40.5306 70.5 45.0168 69.6076 49.2026 67.8738C53.3883 66.1401 57.1916 63.5988 60.3952 60.3952C63.5988 57.1916 66.1401 53.3883 67.8738 49.2026C69.6076 45.0168 70.5 40.5306 70.5 36C70.5 31.4694 69.6076 26.9832 67.8738 22.7974C66.1401 18.6117 63.5988 14.8084 60.3952 11.6048C57.1916 8.4012 53.3883 5.85994 49.2026 4.12616C45.0168 2.39237 40.5306 1.5 36 1.5C31.4694 1.5 26.9832 2.39237 22.7974 4.12616C18.6117 5.85994 14.8084 8.4012 11.6048 11.6048C8.4012 14.8084 5.85994 18.6117 4.12616 22.7974C2.39237 26.9832 1.5 31.4694 1.5 36Z" fill="#C1D0FF"/>
<path d="M36 13.5C43.4533 13.5006 50.7328 15.7516 56.8854 19.9584C63.038 24.1653 67.777 30.1318 70.482 37.077C70.482 36.717 70.5 36.36 70.5 36C70.5 26.85 66.8652 18.0748 60.3952 11.6048C53.9252 5.13481 45.15 1.5 36 1.5C26.85 1.5 18.0748 5.13481 11.6048 11.6048C5.13481 18.0748 1.5 26.85 1.5 36C1.5 36.36 1.5 36.717 1.518 37.077C4.22297 30.1318 8.96198 24.1653 15.1146 19.9584C21.2672 15.7516 28.5467 13.5006 36 13.5Z" fill="#E1E9FF"/>
<path d="M1.5 36C1.5 40.5306 2.39237 45.0168 4.12616 49.2026C5.85994 53.3883 8.4012 57.1916 11.6048 60.3952C14.8084 63.5988 18.6117 66.1401 22.7974 67.8738C26.9832 69.6076 31.4694 70.5 36 70.5C40.5306 70.5 45.0168 69.6076 49.2026 67.8738C53.3883 66.1401 57.1916 63.5988 60.3952 60.3952C63.5988 57.1916 66.1401 53.3883 67.8738 49.2026C69.6076 45.0168 70.5 40.5306 70.5 36C70.5 31.4694 69.6076 26.9832 67.8738 22.7974C66.1401 18.6117 63.5988 14.8084 60.3952 11.6048C57.1916 8.4012 53.3883 5.85994 49.2026 4.12616C45.0168 2.39237 40.5306 1.5 36 1.5C31.4694 1.5 26.9832 2.39237 22.7974 4.12616C18.6117 5.85994 14.8084 8.4012 11.6048 11.6048C8.4012 14.8084 5.85994 18.6117 4.12616 22.7974C2.39237 26.9832 1.5 31.4694 1.5 36Z" stroke="#3A5BC7" stroke-width="3" stroke-linecap="round" stroke-linejoin="round"/>
<path d="M19.5 29.25C19.6483 29.25 19.7933 29.294 19.9167 29.3764C20.04 29.4588 20.1361 29.5759 20.1929 29.713C20.2497 29.85 20.2645 30.0008 20.2356 30.1463C20.2067 30.2918 20.1352 30.4254 20.0303 30.5303C19.9254 30.6352 19.7918 30.7067 19.6463 30.7356C19.5008 30.7645 19.35 30.7497 19.213 30.6929C19.0759 30.6361 18.9588 30.54 18.8764 30.4167C18.794 30.2933 18.75 30.1483 18.75 30C18.75 29.8011 18.829 29.6103 18.9697 29.4697C19.1103 29.329 19.3011 29.25 19.5 29.25Z" fill="#3A5BC7" stroke="#3A5BC7" stroke-width="3" stroke-linecap="round" stroke-linejoin="round"/>
<path d="M52.5 29.25C52.3517 29.25 52.2067 29.294 52.0833 29.3764C51.96 29.4588 51.8639 29.5759 51.8071 29.713C51.7503 29.85 51.7355 30.0008 51.7644 30.1463C51.7934 30.2918 51.8648 30.4254 51.9697 30.5303C52.0746 30.6352 52.2082 30.7067 52.3537 30.7356C52.4992 30.7645 52.65 30.7497 52.787 30.6929C52.9241 30.6361 53.0412 30.54 53.1236 30.4167C53.206 30.2933 53.25 30.1483 53.25 30C53.25 29.8011 53.171 29.6103 53.0303 29.4697C52.8897 29.329 52.6989 29.25 52.5 29.25Z" fill="#3A5BC7" stroke="#3A5BC7" stroke-width="3" stroke-linecap="round" stroke-linejoin="round"/>
<path d="M47.619 46.5C48.0769 46.4993 48.529 46.6035 48.9405 46.8045C49.3519 47.0056 49.7119 47.2982 49.9928 47.6599C50.2737 48.0216 50.4681 48.4428 50.561 48.8912C50.654 49.3397 50.643 49.8035 50.529 50.247C49.7013 53.4716 47.8244 56.3291 45.194 58.3697C42.5635 60.4102 39.329 61.5176 36 61.5176C32.6709 61.5176 29.4364 60.4102 26.8059 58.3697C24.1755 56.3291 22.2986 53.4716 21.471 50.247C21.3569 49.8035 21.3459 49.3397 21.4389 48.8912C21.5318 48.4428 21.7262 48.0216 22.0071 47.6599C22.288 47.2982 22.648 47.0056 23.0595 46.8045C23.4709 46.6035 23.923 46.4993 24.381 46.5H47.619Z" fill="#C1D0FF" stroke="#3A5BC7" stroke-width="3" stroke-linecap="round" stroke-linejoin="round"/>
</g>
<defs>
<clipPath id="clip0_87_951">
<rect width="72" height="72" fill="white"/>
</clipPath>
</defs>
</svg>
