<svg width="72" height="72" viewBox="0 0 72 72" fill="none" xmlns="http://www.w3.org/2000/svg">
<path d="M31.5 64.5C36.8401 64.5 42.0603 62.9165 46.5004 59.9497C50.9405 56.9829 54.4012 52.7661 56.4447 47.8325C58.4883 42.8989 59.023 37.4701 57.9812 32.2326C56.9394 26.9951 54.3679 22.1841 50.5919 18.4081C46.8159 14.6321 42.0049 12.0606 36.7674 11.0188C31.53 9.97701 26.1012 10.5117 21.1675 12.5553C16.2339 14.5988 12.0171 18.0595 9.05032 22.4996C6.08352 26.9397 4.5 32.1599 4.5 37.5C4.5 44.6609 7.34463 51.5284 12.4081 56.5919C17.4716 61.6554 24.3392 64.5 31.5 64.5Z" fill="#F2E2FC"/>
<path d="M31.5 49.5C25.6498 49.4969 19.9588 47.5937 15.2837 44.0769C10.6085 40.5601 7.20206 35.62 5.577 30C4.4052 34.0235 4.18607 38.2646 4.93695 42.3875C5.68784 46.5104 7.38813 50.4019 9.90322 53.754C12.4183 57.1061 15.6792 59.8267 19.4276 61.7004C23.1761 63.5742 27.3093 64.5497 31.5 64.5497C35.6907 64.5497 39.8239 63.5742 43.5724 61.7004C47.3208 59.8267 50.5817 57.1061 53.0968 53.754C55.6119 50.4019 57.3122 46.5104 58.063 42.3875C58.8139 38.2646 58.5948 34.0235 57.423 30C55.7979 35.62 52.3915 40.5601 47.7163 44.0769C43.0412 47.5937 37.3502 49.4969 31.5 49.5Z" fill="#E0C4F4"/>
<path d="M31.5 52.5C34.4667 52.5 37.3668 51.6203 39.8336 49.9721C42.3003 48.3238 44.2229 45.9811 45.3582 43.2403C46.4935 40.4994 46.7906 37.4834 46.2118 34.5737C45.633 31.6639 44.2044 28.9912 42.1066 26.8934C40.0088 24.7956 37.3361 23.367 34.4264 22.7882C31.5166 22.2094 28.5006 22.5065 25.7597 23.6418C23.0189 24.7771 20.6762 26.6997 19.028 29.1665C17.3797 31.6332 16.5 34.5333 16.5 37.5C16.5 41.4783 18.0804 45.2936 20.8934 48.1066C23.7064 50.9197 27.5218 52.5 31.5 52.5Z" fill="white" stroke="#8145B5" stroke-width="3" stroke-linecap="round" stroke-linejoin="round"/>
<path d="M57.8549 31.5003C59.1546 37.2364 58.5458 43.24 56.1209 48.5984C53.6961 53.9568 49.5879 58.3768 44.421 61.1866C39.254 63.9963 33.3109 65.042 27.4952 64.1648C21.6795 63.2875 16.3093 60.5353 12.2011 56.3265C8.09279 52.1176 5.47119 46.6825 4.73483 40.8472C3.99846 35.012 5.1876 29.0959 8.12146 23.9984C11.0553 18.9009 15.5734 14.9008 20.9889 12.6063C26.4043 10.3117 32.4209 9.84825 38.1239 11.2863" stroke="#8145B5" stroke-width="3" stroke-linecap="round" stroke-linejoin="round"/>
<path d="M14.682 58.623L4.5 70.5" stroke="#8145B5" stroke-width="3" stroke-linecap="round" stroke-linejoin="round"/>
<path d="M48.3179 58.623L58.4999 70.5" stroke="#8145B5" stroke-width="3" stroke-linecap="round" stroke-linejoin="round"/>
<path d="M31.5 37.5L48 21" stroke="#8145B5" stroke-width="3" stroke-linecap="round" stroke-linejoin="round"/>
<path d="M49.758 8.742C48.6327 9.86696 48.0003 11.3928 48 12.984V21H56.016C57.6072 20.9997 59.133 20.3673 60.258 19.242L67.5 12H57V1.5L49.758 8.742Z" fill="#E0C4F4" stroke="#8145B5" stroke-width="3" stroke-linecap="round" stroke-linejoin="round"/>
</svg>
