<svg width="72" height="72" viewBox="0 0 72 72" fill="none" xmlns="http://www.w3.org/2000/svg">
<path d="M7.5 54V22.5H45.5V54H7.5Z" fill="#E0C4F4"/>
<path d="M7.5 54V22.5H45.5L7.5 54Z" fill="#F2E2FC"/>
<path d="M45.5 54V40H64.5V54H45.5Z" fill="#E0C4F4"/>
<circle cx="21" cy="54" r="7" fill="white"/>
<circle cx="55" cy="54" r="7" fill="white"/>
<circle cx="55.5" cy="54" r="2" fill="#8145B5"/>
<circle cx="21" cy="54" r="2" fill="#8145B5"/>
<path d="M65.5893 38.6676L55.4131 28.4184C55.15 28.1535 54.7932 28.0046 54.4212 28.0046H47.1195V22.6162C47.1195 21.1981 45.902 20 44.4609 20H8.59758C7.16529 20 6 21.1735 6 22.6162V52.5838C6 54.0265 7.16529 55.2001 8.59758 55.2001H12.8649C13.5068 59.0536 16.8403 62 20.8459 62C24.8515 62 28.1849 59.0537 28.8268 55.2001H47.3991C48.041 59.0536 51.3744 62 55.38 62C59.3863 62 62.7204 59.0527 63.3613 55.198C63.3751 55.1985 63.3885 55.2002 63.4024 55.2002C64.8348 55.2002 66 54.0266 66 52.584V39.6664C66.0001 39.2919 65.8523 38.9325 65.5893 38.6676ZM53.8401 30.83L61.4896 38.5343H47.1195V30.83H53.8401ZM12.8863 52.3748H8.80529V22.8254L44.3142 22.8255V52.3748H28.8055C28.1149 48.5804 24.8097 45.6952 20.8459 45.6952C16.8821 45.6952 13.5769 48.5804 12.8863 52.3748ZM20.8459 59.1746C17.9295 59.1746 15.5568 56.7849 15.5568 53.8476C15.5568 50.9103 17.9295 48.5206 20.8459 48.5206C23.7623 48.5206 26.1349 50.9103 26.1349 53.8476C26.1351 56.7849 23.7623 59.1746 20.8459 59.1746ZM55.38 59.1746C52.4636 59.1746 50.0909 56.7849 50.0909 53.8476C50.0909 50.9103 52.4636 48.5206 55.38 48.5206C58.2964 48.5206 60.6691 50.9103 60.6691 53.8476C60.6692 56.7849 58.2964 59.1746 55.38 59.1746ZM55.38 45.6952C51.4161 45.6952 48.111 48.5804 47.4204 52.3748H47.1194V41.3597H63.1947V51.7263C62.2653 48.2565 59.1148 45.6952 55.38 45.6952Z" fill="#8145B5"/>
</svg>
