<svg width="72" height="72" viewBox="0 0 72 72" fill="none" xmlns="http://www.w3.org/2000/svg">
<path d="M14.4439 9.28664C20.1391 -0.644875 51.8636 -0.992923 64.4275 5.41101C67.157 6.80222 67.9498 10.3353 66.122 12.7937C59.3838 21.857 45.4797 42.0557 45.5833 68.0731C45.5926 70.4042 42.9078 71.7193 41.0687 70.2869C16.6087 51.2361 8.77491 19.1727 14.4439 9.28664Z" fill="#DBE7F2"/>
<path d="M14.4439 9.28664C20.1391 -0.644875 51.8636 -0.992923 64.4275 5.41101C67.157 6.80222 67.9498 10.3353 66.122 12.7937C59.3838 21.857 45.4797 42.0557 45.5833 68.0731C45.5926 70.4042 42.9078 71.7193 41.0687 70.2869C16.6087 51.2361 8.77491 19.1727 14.4439 9.28664Z" fill="#E1E9FF"/>
<path d="M29.8436 59.404C35.2191 60.1529 41.0341 60.4941 46.0533 59.5025C46.6572 54.163 47.8058 49.1245 49.2856 44.442C41.7838 49.5228 32.8743 51.9435 24.9265 52.8432C26.4229 55.0724 28.0606 57.2693 29.8436 59.404ZM12.8795 14.5449C12.077 21.056 13.7868 30.6919 18.2513 40.7594C27.2924 41.4502 39.3503 40.9161 52.1819 36.5936C53.588 33.2621 55.1191 30.1685 56.6722 27.3396C39.0419 28.1413 21.5323 20.1014 12.8795 14.5449Z" fill="#C1D0FF"/>
<path d="M40.8626 13.1076C51.1877 13.1076 59.5578 11.1671 59.5578 8.77342C59.5578 6.3797 51.1877 4.43921 40.8626 4.43921C30.5376 4.43921 22.1675 6.3797 22.1675 8.77342C22.1675 11.1671 30.5376 13.1076 40.8626 13.1076Z" fill="#C1D0FF"/>
<path d="M65.0275 16.1957C65.7336 15.2036 66.4029 14.2899 67.0192 13.4608C68.0957 12.0129 68.4771 10.1747 68.0656 8.41754C67.6588 6.68026 66.5179 5.22127 64.9352 4.41464C58.6997 1.23651 47.657 -0.454929 36.8024 0.106447C31.1063 0.400917 17.4307 1.83065 13.474 8.73057C13.0707 9.43398 12.7338 10.2326 12.4596 11.1119C6.24084 12.1832 3.14526 13.8597 3.00492 16.2296C2.90113 17.9813 4.43986 19.5309 7.70897 20.9665C8.8808 21.4812 10.2747 21.9775 11.8546 22.4463C12.3617 26.8323 13.5549 31.7297 15.4095 36.7383C15.4195 36.7655 15.4303 36.7925 15.4403 36.8196C11.7628 38.2927 10.0522 39.8483 10.2212 41.5601C10.2253 41.6003 10.2318 41.6397 10.2399 41.6787C10.4506 43.0872 11.8936 44.1212 14.6526 44.8346C15.9377 45.1669 17.5228 45.4319 19.3437 45.6226C20.4437 47.7455 21.6397 49.8171 22.922 51.8287C19.9874 52.6931 18.5436 53.8436 18.5228 55.3273C18.5003 56.929 20.1419 58.1858 23.542 59.1692C25.1094 59.6226 27.0143 60.0016 29.1286 60.2877C32.5264 64.3275 36.3036 67.9929 40.3814 71.169C41.0869 71.7186 41.9294 71.9999 42.7809 71.9999C43.3683 71.9999 43.9599 71.866 44.514 71.5939C45.8693 70.9283 46.7075 69.5774 46.7014 68.0685C46.6821 63.2317 47.1576 58.3596 48.1216 53.4784C53.0399 54.3834 54.4193 55.5525 54.531 55.8528C54.5327 56.4617 55.0225 56.959 55.6335 56.9676C55.6388 56.9677 55.6442 56.9677 55.6494 56.9677C56.2597 56.9677 56.7585 56.4774 56.7672 55.8654C56.7959 53.8311 54.0446 52.2936 48.5863 51.2891C49.1664 48.7359 49.8814 46.1813 50.7274 43.629C53.6771 43.0413 56.3577 42.3677 58.6298 41.6356C63.9824 39.9107 66.4857 38.075 66.2832 36.0233C66.2791 35.9833 66.2731 35.9441 66.2652 35.9054C66.0658 34.5665 64.7587 33.5694 62.2685 32.8616C60.5803 32.3818 58.2955 32.0267 55.5975 31.82C56.7845 29.4175 58.0158 27.1677 59.2424 25.0837C64.8453 24.0423 67.7883 22.4029 68.0109 20.192C68.0165 20.1558 68.0206 20.1193 68.0229 20.082C68.1061 18.6697 67.1236 17.3913 65.0275 16.1957ZM11.6434 20.0422C10.5057 19.6804 9.48662 19.3046 8.60813 18.9187C5.89828 17.7286 5.21428 16.7514 5.23734 16.3617C5.25576 16.05 5.76103 15.4705 7.12397 14.8639C8.29271 14.3438 9.92804 13.8749 11.9072 13.4879C11.5863 15.4276 11.5002 17.6374 11.6434 20.0422ZM15.2123 42.6696C12.9902 42.0951 12.4593 41.4657 12.4471 41.3406C12.4461 41.3309 12.6075 40.3628 16.251 38.904C16.8416 40.3634 17.4758 41.8054 18.1529 43.2271C17.0413 43.0731 16.0527 42.8868 15.2123 42.6696ZM24.5588 57.1318C21.7752 56.3789 20.8906 55.6115 20.7673 55.3594C20.8922 55.1186 21.7252 54.4383 24.2128 53.7931C25.1153 55.1217 26.0568 56.4208 27.0343 57.6881C26.1413 57.5207 25.3095 57.3349 24.5588 57.1318ZM64.0572 36.2435C64.0818 36.4921 63.0712 37.8548 57.9437 39.5073C56.0842 40.1065 53.9367 40.6657 51.5838 41.1696C52.3917 38.9563 53.2976 36.7457 54.304 34.54C54.3883 34.3552 54.4735 34.1726 54.5586 33.9895C62.2066 34.4628 64.0235 35.9009 64.0572 36.2435ZM57.8458 23.0566C56.824 23.225 55.6791 23.3813 54.3961 23.52C53.7822 23.5864 53.3382 24.1379 53.4044 24.7519C53.4665 25.3252 53.9512 25.75 54.5148 25.75C54.5549 25.75 54.5957 25.7479 54.6363 25.7434C55.2459 25.6775 55.8328 25.6065 56.4013 25.5311C55.2035 27.645 54.0119 29.9125 52.8701 32.3226C52.8616 32.3392 52.8538 32.3559 52.8462 32.3729C52.6527 32.782 52.4599 33.1939 52.2695 33.6113C51.0452 36.2941 49.9656 38.985 49.0276 41.6799C46.3898 42.1703 43.5524 42.5917 40.6112 42.9254C39.9975 42.9951 39.5565 43.549 39.6261 44.1625C39.6908 44.7335 40.1747 45.1548 40.7358 45.1548C40.7778 45.1548 40.8203 45.1524 40.8631 45.1476C43.4101 44.8588 45.8841 44.5042 48.2249 44.0963C47.4048 46.6924 46.7169 49.2908 46.1641 51.8882C46.1523 51.9301 46.142 51.9727 46.135 52.0169C46.1338 52.0239 46.1336 52.0308 46.1327 52.0377C45.0022 57.4006 44.4432 62.758 44.4645 68.0777C44.4671 68.7333 44.1167 69.2975 43.5275 69.5869C42.9367 69.8771 42.274 69.8091 41.7551 69.405C38.2944 66.7097 35.1777 63.753 32.39 60.6399C33.0288 60.6927 33.6778 60.7387 34.3369 60.7753C34.3582 60.7764 34.379 60.7771 34.3998 60.7771C34.989 60.7771 35.4822 60.3164 35.5152 59.7207C35.5495 59.1041 35.0773 58.5766 34.4607 58.5423C33.0149 58.4621 31.6109 58.3397 30.2835 58.1808C27.0195 54.2033 24.2628 50.0231 21.9969 45.8377C22.6205 45.8748 23.2623 45.905 23.9232 45.9272C23.936 45.9277 23.9487 45.9278 23.9613 45.9278C24.5616 45.9278 25.0579 45.4516 25.0782 44.8471C25.0988 44.2299 24.6154 43.7127 23.9982 43.6918C22.8671 43.6539 21.7939 43.5933 20.7881 43.5116C17.1671 36.2553 15.0032 29.098 14.181 23.0821C15.6573 23.4545 17.2545 23.8043 18.9546 24.125C19.0247 24.138 19.0946 24.1445 19.1632 24.1445C19.6902 24.1445 20.1597 23.7702 20.2608 23.2334C20.3752 22.6266 19.976 22.0419 19.3692 21.9273C17.3938 21.5546 15.5673 21.1444 13.9225 20.7059C13.6615 17.4863 13.8238 14.6769 14.3909 12.4688C14.4082 12.4195 14.421 12.3681 14.4313 12.3162C14.6844 11.3743 15.0115 10.5437 15.4135 9.84278C17.7787 5.71838 25.8173 2.91333 36.9171 2.33944C38.2774 2.26912 39.6384 2.23481 40.9916 2.23481C50.0771 2.23481 58.7737 3.78436 63.919 6.40702C64.9135 6.91398 65.631 7.83268 65.8873 8.92731C66.1483 10.0419 65.9066 11.2077 65.2237 12.1261C64.4466 13.1712 63.588 14.3471 62.6759 15.6462C62.5161 15.7555 62.3821 15.9065 62.2944 16.0946C62.2638 16.1598 62.2408 16.2267 62.2239 16.2942C60.8439 18.2847 59.3547 20.5452 57.8458 23.0566ZM65.7899 19.9501C65.7625 20.4115 64.6992 21.5006 60.8399 22.4526C61.8334 20.8647 62.8086 19.3907 63.7383 18.038C65.3681 18.9348 65.8082 19.643 65.7899 19.9501ZM49.6829 25.0195C49.6568 24.4026 49.1359 23.9213 48.5183 23.9497C44.3219 24.1279 39.8337 24.0784 35.179 23.8027C34.5628 23.7672 34.033 24.2363 33.9966 24.8527C33.9601 25.4692 34.4302 25.9987 35.0467 26.0352C37.9222 26.2057 40.7361 26.2909 43.4606 26.2909C45.2178 26.2909 46.9381 26.2554 48.6131 26.1843C49.2303 26.1578 49.7091 25.6365 49.6829 25.0195Z" fill="#3A5BC7"/>
</svg>
